<svg width="250" height="101" viewBox="0 0 250 101" fill="none" xmlns="http://www.w3.org/2000/svg">
<rect x="1" y="1" width="220" height="99" rx="6" fill="white" stroke="#E9EFF4"/>
<rect x="16" y="69.5386" width="24" height="18.2769" rx="2" fill="white" stroke="#4DA1FF" stroke-opacity="0.7"/>
<path fill-rule="evenodd" clip-rule="evenodd" d="M23.6947 78.373L31.0767 80.7665L31.9136 75.4272L23.6947 78.373ZM31.251 81.1381C31.2219 81.1381 31.1931 81.1336 31.1661 81.125L23.1228 78.5171C23.0496 78.4933 23.0016 78.4408 23 78.3826C22.9985 78.3244 23.0436 78.2708 23.1156 78.2449L32.0709 75.0354C32.1387 75.011 32.2198 75.0154 32.2821 75.0471C32.3444 75.0787 32.3776 75.1324 32.369 75.1871L31.457 81.0047C31.4496 81.0522 31.4112 81.0946 31.3537 81.1183C31.3219 81.1315 31.2865 81.1381 31.251 81.1381Z" fill="#4DA1FF"/>
<path d="M23.6947 78.373L23.6441 78.2318L23.2303 78.3801L23.6485 78.5157L23.6947 78.373ZM31.0767 80.7665L31.0304 80.9092L31.1976 80.9634L31.2249 80.7897L31.0767 80.7665ZM31.9136 75.4272L32.0618 75.4504L32.1009 75.2007L31.8629 75.286L31.9136 75.4272ZM31.1661 81.125L31.1198 81.2677L31.1207 81.268L31.1661 81.125ZM23.1228 78.5171L23.0765 78.6598L23.0766 78.6598L23.1228 78.5171ZM23 78.3826L22.85 78.3864L22.85 78.3869L23 78.3826ZM23.1156 78.2449L23.0649 78.1037L23.0648 78.1037L23.1156 78.2449ZM32.0709 75.0354L32.1215 75.1766L32.1215 75.1766L32.0709 75.0354ZM32.2821 75.0471L32.214 75.1808L32.2142 75.1809L32.2821 75.0471ZM32.369 75.1871L32.5172 75.2104L32.5173 75.2102L32.369 75.1871ZM31.457 81.0047L31.6052 81.028L31.6052 81.0279L31.457 81.0047ZM31.3537 81.1183L31.2967 80.9795L31.296 80.9798L31.3537 81.1183ZM23.6485 78.5157L31.0304 80.9092L31.1229 80.6238L23.741 78.2303L23.6485 78.5157ZM31.2249 80.7897L32.0618 75.4504L31.7654 75.4039L30.9285 80.7432L31.2249 80.7897ZM31.8629 75.286L23.6441 78.2318L23.7453 78.5142L31.9642 75.5684L31.8629 75.286ZM31.251 80.9881C31.2373 80.9881 31.2238 80.9859 31.2115 80.9821L31.1207 81.268C31.1624 81.2812 31.2066 81.2881 31.251 81.2881V80.9881ZM31.2124 80.9823L23.1691 78.3744L23.0766 78.6598L31.1198 81.2677L31.2124 80.9823ZM23.1691 78.3744C23.1535 78.3694 23.1467 78.3631 23.1453 78.3616C23.1447 78.361 23.1458 78.362 23.1471 78.3649C23.1484 78.3681 23.1498 78.3727 23.1499 78.3784L22.85 78.3869C22.8541 78.5307 22.9672 78.6243 23.0765 78.6598L23.1691 78.3744ZM23.1499 78.3789C23.1501 78.3845 23.149 78.3895 23.1476 78.3932C23.1463 78.3967 23.145 78.3982 23.1451 78.398C23.1457 78.3974 23.1513 78.3914 23.1663 78.3861L23.0648 78.1037C22.9561 78.1428 22.8464 78.2411 22.85 78.3864L23.1499 78.3789ZM23.1662 78.3861L32.1215 75.1766L32.0202 74.8942L23.0649 78.1037L23.1662 78.3861ZM32.1215 75.1766C32.1522 75.1656 32.1902 75.1687 32.214 75.1808L32.3502 74.9135C32.2495 74.8621 32.1252 74.8565 32.0202 74.8942L32.1215 75.1766ZM32.2142 75.1809C32.2248 75.1863 32.2263 75.1902 32.2246 75.1875C32.2238 75.1861 32.2222 75.1831 32.2213 75.1786C32.2203 75.174 32.2201 75.169 32.2208 75.1641L32.5173 75.2102C32.5387 75.0725 32.4511 74.9647 32.35 74.9134L32.2142 75.1809ZM32.2209 75.1639L31.3088 80.9815L31.6052 81.0279L32.5172 75.2104L32.2209 75.1639ZM31.3089 80.9814C31.3103 80.9724 31.3139 80.9687 31.3131 80.9696C31.3122 80.9706 31.3075 80.9751 31.2967 80.9795L31.4107 81.257C31.5011 81.2199 31.5873 81.142 31.6052 81.028L31.3089 80.9814ZM31.296 80.9798C31.284 80.9848 31.2684 80.9881 31.251 80.9881V81.2881C31.3046 81.2881 31.3599 81.2782 31.4114 81.2567L31.296 80.9798Z" fill="#4DA1FF"/>
<path fill-rule="evenodd" clip-rule="evenodd" d="M26.9016 82.0772C26.8827 82.0772 26.8636 82.0752 26.8447 82.0715C26.7549 82.0528 26.6934 81.9931 26.6941 81.9256L26.72 79.5193C26.7204 79.4834 26.7387 79.4488 26.7713 79.4217L32.0034 75.0715C32.0789 75.009 32.2101 75.0025 32.2964 75.057C32.3827 75.1117 32.3917 75.2066 32.3163 75.2692L27.1346 79.5774L27.1149 81.3846L28.2583 80.0265C28.3182 79.9555 28.4459 79.9331 28.5436 79.9764C28.6413 80.0195 28.6723 80.1123 28.6125 80.183L27.0788 82.0052C27.0404 82.0507 26.9725 82.0772 26.9016 82.0772Z" fill="#4DA1FF"/>
<path d="M26.9016 82.0772C26.8827 82.0772 26.8636 82.0752 26.8447 82.0715C26.7549 82.0528 26.6934 81.9931 26.6941 81.9256L26.72 79.5193C26.7204 79.4834 26.7387 79.4488 26.7713 79.4217L32.0034 75.0715C32.0789 75.009 32.2101 75.0025 32.2964 75.057C32.3827 75.1117 32.3917 75.2066 32.3163 75.2692L27.1346 79.5774L27.1149 81.3846L28.2583 80.0265C28.3182 79.9555 28.4459 79.9331 28.5436 79.9764C28.6413 80.0195 28.6723 80.1123 28.6125 80.183L27.0788 82.0052C27.0404 82.0507 26.9725 82.0772 26.9016 82.0772" stroke="#4DA1FF" stroke-width="0.3"/>
<rect x="77" y="69.5386" width="25" height="19.0385" rx="2" fill="#FFD012" fill-opacity="0.1"/>
<path d="M88.8384 79.9948V80.8694H85.4414V79.9948H88.8384ZM85.7534 74.4709V80.8694H84.6504V74.4709H85.7534ZM88.3945 77.1428V78.0041H85.4414V77.1428H88.3945ZM88.8164 74.4709V75.3498H85.4414V74.4709H88.8164ZM92.8708 79.2214C92.8708 79.0896 92.8503 78.9724 92.8093 78.8698C92.7712 78.7673 92.7023 78.6736 92.6027 78.5886C92.5031 78.5036 92.3625 78.4216 92.1808 78.3425C92.0021 78.2605 91.7736 78.177 91.4953 78.092C91.1906 77.9983 90.9094 77.8943 90.6515 77.78C90.3967 77.6628 90.174 77.528 89.9836 77.3757C89.7931 77.2204 89.6452 77.0432 89.5397 76.844C89.4343 76.6418 89.3815 76.4089 89.3815 76.1452C89.3815 75.8845 89.4357 75.6472 89.5441 75.4333C89.6554 75.2195 89.8122 75.0349 90.0143 74.8796C90.2194 74.7214 90.4611 74.5998 90.7394 74.5149C91.0178 74.427 91.3254 74.383 91.6623 74.383C92.1369 74.383 92.5456 74.4709 92.8884 74.6467C93.2341 74.8225 93.4992 75.0583 93.6838 75.3542C93.8713 75.6501 93.965 75.9768 93.965 76.3342H92.8708C92.8708 76.1233 92.8254 75.9372 92.7345 75.7761C92.6467 75.612 92.5119 75.4831 92.3303 75.3894C92.1515 75.2956 91.9245 75.2487 91.6491 75.2487C91.3884 75.2487 91.1716 75.2883 90.9987 75.3674C90.8259 75.4465 90.697 75.5534 90.612 75.6882C90.527 75.823 90.4845 75.9753 90.4845 76.1452C90.4845 76.2654 90.5124 76.3752 90.568 76.4748C90.6237 76.5715 90.7087 76.6623 90.8229 76.7473C90.9372 76.8293 91.0807 76.907 91.2536 76.9802C91.4264 77.0534 91.6301 77.1237 91.8644 77.1911C92.2189 77.2966 92.528 77.4138 92.7917 77.5427C93.0553 77.6687 93.2751 77.8122 93.4509 77.9734C93.6266 78.1345 93.7585 78.3176 93.8464 78.5227C93.9343 78.7248 93.9782 78.9548 93.9782 79.2126C93.9782 79.4821 93.924 79.7253 93.8156 79.9421C93.7072 80.156 93.5519 80.3391 93.3498 80.4914C93.1506 80.6408 92.9103 80.7566 92.6291 80.8386C92.3508 80.9177 92.0402 80.9572 91.6974 80.9572C91.3898 80.9572 91.0866 80.9162 90.7878 80.8342C90.4919 80.7522 90.2223 80.6277 89.9792 80.4607C89.736 80.2907 89.5427 80.0798 89.3991 79.8279C89.2555 79.573 89.1838 79.2756 89.1838 78.9358H90.2868C90.2868 79.1438 90.322 79.321 90.3923 79.4675C90.4655 79.614 90.5666 79.7341 90.6955 79.8279C90.8244 79.9187 90.9738 79.9861 91.1437 80.03C91.3166 80.0739 91.5012 80.0959 91.6974 80.0959C91.9553 80.0959 92.1706 80.0593 92.3434 79.9861C92.5192 79.9128 92.6511 79.8103 92.7389 79.6784C92.8268 79.5466 92.8708 79.3943 92.8708 79.2214Z" fill="#FFD012"/>
<rect x="47" y="69.5386" width="25" height="19.0385" rx="2" fill="#4DA1FF" fill-opacity="0.1"/>
<path d="M55.1421 75.3235L53.2305 80.8694H52.0747L54.4829 74.4709H55.2212L55.1421 75.3235ZM56.7417 80.8694L54.8257 75.3235L54.7422 74.4709H55.4849L57.9019 80.8694H56.7417ZM56.6494 78.4963V79.3708H53.1689V78.4963H56.6494ZM58.8317 74.4709H59.8161L61.6662 79.406L63.5119 74.4709H64.4963L62.0529 80.8694H61.2707L58.8317 74.4709ZM58.3835 74.4709H59.3195L59.4821 78.7424V80.8694H58.3835V74.4709ZM64.0085 74.4709H64.9489V80.8694H63.8459V78.7424L64.0085 74.4709Z" fill="#4DA1FF"/>
<path d="M19.7734 40.9922L21.749 34.0469H22.7061L22.1523 36.7471L20.0264 44H19.0762L19.7734 40.9922ZM17.7295 34.0469L19.3018 40.8555L19.7734 44H18.8301L16.417 34.0469H17.7295ZM25.2627 40.8486L26.8008 34.0469H28.1201L25.7139 44H24.7705L25.2627 40.8486ZM22.8496 34.0469L24.7705 40.9922L25.4678 44H24.5176L22.4668 36.7471L21.9062 34.0469H22.8496ZM31.9553 44.1367C31.4404 44.1367 30.9732 44.0501 30.554 43.877C30.1393 43.6992 29.7815 43.4508 29.4807 43.1318C29.1845 42.8128 28.9566 42.4346 28.7971 41.9971C28.6376 41.5596 28.5579 41.0811 28.5579 40.5615V40.2744C28.5579 39.6729 28.6468 39.1374 28.8245 38.668C29.0022 38.194 29.2438 37.793 29.5491 37.4648C29.8544 37.1367 30.2008 36.8883 30.5882 36.7197C30.9755 36.5511 31.3766 36.4668 31.7913 36.4668C32.3199 36.4668 32.7757 36.5579 33.1585 36.7402C33.5458 36.9225 33.8626 37.1777 34.1087 37.5059C34.3548 37.8294 34.5371 38.2122 34.6555 38.6543C34.774 39.0918 34.8333 39.5703 34.8333 40.0898V40.6572H29.3098V39.625H33.5686V39.5293C33.5504 39.2012 33.482 38.8822 33.3635 38.5723C33.2496 38.2624 33.0673 38.0072 32.8167 37.8066C32.566 37.6061 32.2242 37.5059 31.7913 37.5059C31.5042 37.5059 31.2399 37.5674 30.9983 37.6904C30.7568 37.8089 30.5494 37.9867 30.3762 38.2236C30.2031 38.4606 30.0686 38.75 29.9729 39.0918C29.8772 39.4336 29.8294 39.8278 29.8294 40.2744V40.5615C29.8294 40.9124 29.8772 41.2428 29.9729 41.5527C30.0732 41.8581 30.2167 42.127 30.4036 42.3594C30.595 42.5918 30.8251 42.7741 31.094 42.9062C31.3675 43.0384 31.6774 43.1045 32.0237 43.1045C32.4703 43.1045 32.8486 43.0133 33.1585 42.8311C33.4684 42.6488 33.7395 42.4049 33.9719 42.0996L34.7376 42.708C34.5781 42.9495 34.3753 43.1797 34.1292 43.3984C33.8831 43.6172 33.58 43.7949 33.22 43.9316C32.8645 44.0684 32.443 44.1367 31.9553 44.1367ZM36.0162 33.5H37.2876V42.5645L37.1783 44H36.0162V33.5ZM42.2847 40.2402V40.3838C42.2847 40.9215 42.2209 41.4206 42.0933 41.8809C41.9657 42.3366 41.7789 42.7331 41.5328 43.0703C41.2867 43.4076 40.9859 43.6696 40.6304 43.8564C40.2749 44.0433 39.8671 44.1367 39.4068 44.1367C38.9374 44.1367 38.5249 44.057 38.1695 43.8975C37.8186 43.7334 37.5223 43.4987 37.2808 43.1934C37.0393 42.888 36.8456 42.5189 36.6998 42.0859C36.5585 41.653 36.4605 41.1654 36.4058 40.623V39.9941C36.4605 39.4473 36.5585 38.9574 36.6998 38.5244C36.8456 38.0915 37.0393 37.7223 37.2808 37.417C37.5223 37.1071 37.8186 36.8724 38.1695 36.7129C38.5204 36.5488 38.9283 36.4668 39.3931 36.4668C39.858 36.4668 40.2704 36.5579 40.6304 36.7402C40.9904 36.918 41.2912 37.1732 41.5328 37.5059C41.7789 37.8385 41.9657 38.2373 42.0933 38.7021C42.2209 39.1624 42.2847 39.6751 42.2847 40.2402ZM41.0132 40.3838V40.2402C41.0132 39.8711 40.979 39.5247 40.9107 39.2012C40.8423 38.873 40.733 38.5859 40.5826 38.3398C40.4322 38.0892 40.2339 37.8932 39.9878 37.752C39.7417 37.6061 39.4387 37.5332 39.0787 37.5332C38.7596 37.5332 38.4817 37.5879 38.2447 37.6973C38.0123 37.8066 37.814 37.9548 37.6499 38.1416C37.4859 38.3239 37.3514 38.5335 37.2466 38.7705C37.1464 39.0029 37.0712 39.2445 37.021 39.4951V41.1426C37.094 41.4616 37.2124 41.7692 37.3765 42.0654C37.5451 42.3571 37.7684 42.5964 38.0464 42.7832C38.329 42.9701 38.6776 43.0635 39.0923 43.0635C39.4341 43.0635 39.7258 42.9951 39.9673 42.8584C40.2134 42.7171 40.4117 42.5234 40.5621 42.2773C40.717 42.0312 40.8309 41.7464 40.9039 41.4229C40.9768 41.0993 41.0132 40.7529 41.0132 40.3838ZM47.9041 42.0381C47.9041 41.8558 47.8631 41.6872 47.7811 41.5322C47.7036 41.3727 47.5418 41.2292 47.2957 41.1016C47.0542 40.9694 46.6896 40.8555 46.202 40.7598C45.7918 40.6732 45.4204 40.5706 45.0877 40.4521C44.7596 40.3337 44.4793 40.1901 44.2469 40.0215C44.019 39.8529 43.8436 39.6546 43.7205 39.4268C43.5975 39.1989 43.536 38.9323 43.536 38.627C43.536 38.3353 43.5998 38.0596 43.7274 37.7998C43.8595 37.54 44.0441 37.3099 44.2811 37.1094C44.5226 36.9089 44.812 36.7516 45.1492 36.6377C45.4865 36.5238 45.8625 36.4668 46.2772 36.4668C46.8696 36.4668 47.3755 36.5716 47.7947 36.7812C48.214 36.9909 48.5353 37.2712 48.7586 37.6221C48.9819 37.9684 49.0936 38.3535 49.0936 38.7773H47.8289C47.8289 38.5723 47.7674 38.374 47.6444 38.1826C47.5259 37.9867 47.3504 37.8249 47.118 37.6973C46.8901 37.5697 46.6099 37.5059 46.2772 37.5059C45.9263 37.5059 45.6414 37.5605 45.4227 37.6699C45.2085 37.7747 45.0513 37.9092 44.951 38.0732C44.8553 38.2373 44.8074 38.4105 44.8074 38.5928C44.8074 38.7295 44.8302 38.8525 44.8758 38.9619C44.9259 39.0667 45.0125 39.1647 45.1356 39.2559C45.2586 39.3424 45.4318 39.4245 45.6551 39.502C45.8784 39.5794 46.1632 39.6569 46.5096 39.7344C47.1157 39.8711 47.6147 40.0352 48.0067 40.2266C48.3986 40.418 48.6903 40.6527 48.8817 40.9307C49.0731 41.2087 49.1688 41.5459 49.1688 41.9424C49.1688 42.266 49.1004 42.5622 48.9637 42.8311C48.8315 43.0999 48.6378 43.3324 48.3826 43.5283C48.132 43.7197 47.8312 43.8701 47.4803 43.9795C47.1339 44.0843 46.7443 44.1367 46.3113 44.1367C45.6597 44.1367 45.1082 44.0205 44.6571 43.7881C44.2059 43.5557 43.8641 43.2549 43.6317 42.8857C43.3992 42.5166 43.283 42.127 43.283 41.7168H44.5545C44.5727 42.0632 44.673 42.3389 44.8553 42.5439C45.0376 42.7445 45.2609 42.888 45.5252 42.9746C45.7895 43.0566 46.0516 43.0977 46.3113 43.0977C46.6577 43.0977 46.9471 43.0521 47.1795 42.9609C47.4165 42.8698 47.5965 42.7445 47.7196 42.585C47.8426 42.4255 47.9041 42.2432 47.9041 42.0381ZM51.9171 36.6035V44H50.6456V36.6035H51.9171ZM50.5499 34.6416C50.5499 34.4365 50.6114 34.2633 50.7345 34.1221C50.8621 33.9808 51.0489 33.9102 51.295 33.9102C51.5365 33.9102 51.7211 33.9808 51.8487 34.1221C51.9809 34.2633 52.047 34.4365 52.047 34.6416C52.047 34.8376 51.9809 35.0062 51.8487 35.1475C51.7211 35.2842 51.5365 35.3525 51.295 35.3525C51.0489 35.3525 50.8621 35.2842 50.7345 35.1475C50.6114 35.0062 50.5499 34.8376 50.5499 34.6416ZM56.7572 36.6035V37.5742H52.7582V36.6035H56.7572ZM54.1117 34.8057H55.3763V42.168C55.3763 42.4186 55.4151 42.6077 55.4925 42.7354C55.57 42.863 55.6703 42.9473 55.7933 42.9883C55.9164 43.0293 56.0485 43.0498 56.1898 43.0498C56.2946 43.0498 56.404 43.0407 56.5179 43.0225C56.6364 42.9997 56.7253 42.9814 56.7845 42.9678L56.7914 44C56.6911 44.0319 56.559 44.0615 56.3949 44.0889C56.2354 44.1208 56.0417 44.1367 55.8138 44.1367C55.5039 44.1367 55.2191 44.0752 54.9593 43.9521C54.6996 43.8291 54.4922 43.624 54.3373 43.3369C54.1869 43.0452 54.1117 42.6533 54.1117 42.1611V34.8057ZM61.0231 44.1367C60.5081 44.1367 60.041 44.0501 59.6217 43.877C59.207 43.6992 58.8493 43.4508 58.5485 43.1318C58.2523 42.8128 58.0244 42.4346 57.8649 41.9971C57.7054 41.5596 57.6256 41.0811 57.6256 40.5615V40.2744C57.6256 39.6729 57.7145 39.1374 57.8922 38.668C58.07 38.194 58.3115 37.793 58.6168 37.4648C58.9222 37.1367 59.2685 36.8883 59.6559 36.7197C60.0433 36.5511 60.4443 36.4668 60.859 36.4668C61.3877 36.4668 61.8434 36.5579 62.2262 36.7402C62.6136 36.9225 62.9303 37.1777 63.1764 37.5059C63.4225 37.8294 63.6048 38.2122 63.7233 38.6543C63.8418 39.0918 63.901 39.5703 63.901 40.0898V40.6572H58.3776V39.625H62.6364V39.5293C62.6181 39.2012 62.5498 38.8822 62.4313 38.5723C62.3174 38.2624 62.1351 38.0072 61.8844 37.8066C61.6338 37.6061 61.292 37.5059 60.859 37.5059C60.5719 37.5059 60.3076 37.5674 60.0661 37.6904C59.8245 37.8089 59.6172 37.9867 59.444 38.2236C59.2708 38.4606 59.1364 38.75 59.0407 39.0918C58.945 39.4336 58.8971 39.8278 58.8971 40.2744V40.5615C58.8971 40.9124 58.945 41.2428 59.0407 41.5527C59.1409 41.8581 59.2845 42.127 59.4713 42.3594C59.6627 42.5918 59.8929 42.7741 60.1618 42.9062C60.4352 43.0384 60.7451 43.1045 61.0914 43.1045C61.5381 43.1045 61.9163 43.0133 62.2262 42.8311C62.5361 42.6488 62.8073 42.4049 63.0397 42.0996L63.8053 42.708C63.6458 42.9495 63.443 43.1797 63.1969 43.3984C62.9508 43.6172 62.6478 43.7949 62.2877 43.9316C61.9323 44.0684 61.5107 44.1367 61.0231 44.1367ZM70.1633 44H68.8986V35.8242C68.8986 35.291 68.9943 34.8421 69.1857 34.4775C69.3817 34.1084 69.662 33.8304 70.0266 33.6436C70.3911 33.4521 70.8241 33.3564 71.3254 33.3564C71.4712 33.3564 71.617 33.3656 71.7629 33.3838C71.9133 33.402 72.0591 33.4294 72.2004 33.4658L72.132 34.498C72.0363 34.4753 71.9269 34.4593 71.8039 34.4502C71.6854 34.4411 71.5669 34.4365 71.4484 34.4365C71.1795 34.4365 70.9471 34.4912 70.7512 34.6006C70.5598 34.7054 70.4139 34.8604 70.3137 35.0654C70.2134 35.2705 70.1633 35.5234 70.1633 35.8242V44ZM71.7355 36.6035V37.5742H67.7297V36.6035H71.7355ZM72.5219 40.3838V40.2266C72.5219 39.6934 72.5994 39.1989 72.7544 38.7432C72.9093 38.2829 73.1326 37.8841 73.4243 37.5469C73.7159 37.2051 74.0691 36.9408 74.4838 36.7539C74.8986 36.5625 75.3634 36.4668 75.8784 36.4668C76.3979 36.4668 76.865 36.5625 77.2797 36.7539C77.699 36.9408 78.0545 37.2051 78.3462 37.5469C78.6424 37.8841 78.868 38.2829 79.0229 38.7432C79.1779 39.1989 79.2553 39.6934 79.2553 40.2266V40.3838C79.2553 40.917 79.1779 41.4115 79.0229 41.8672C78.868 42.3229 78.6424 42.7217 78.3462 43.0635C78.0545 43.4007 77.7013 43.665 77.2866 43.8564C76.8764 44.0433 76.4116 44.1367 75.8921 44.1367C75.3725 44.1367 74.9054 44.0433 74.4907 43.8564C74.076 43.665 73.7205 43.4007 73.4243 43.0635C73.1326 42.7217 72.9093 42.3229 72.7544 41.8672C72.5994 41.4115 72.5219 40.917 72.5219 40.3838ZM73.7866 40.2266V40.3838C73.7866 40.7529 73.8299 41.1016 73.9165 41.4297C74.0031 41.7533 74.1329 42.0404 74.3061 42.291C74.4838 42.5417 74.7049 42.7399 74.9692 42.8857C75.2335 43.027 75.5411 43.0977 75.8921 43.0977C76.2384 43.0977 76.5415 43.027 76.8012 42.8857C77.0656 42.7399 77.2843 42.5417 77.4575 42.291C77.6307 42.0404 77.7605 41.7533 77.8471 41.4297C77.9383 41.1016 77.9838 40.7529 77.9838 40.3838V40.2266C77.9838 39.862 77.9383 39.5179 77.8471 39.1943C77.7605 38.8662 77.6284 38.5768 77.4506 38.3262C77.2775 38.071 77.0587 37.8704 76.7944 37.7246C76.5346 37.5788 76.2293 37.5059 75.8784 37.5059C75.532 37.5059 75.2267 37.5788 74.9624 37.7246C74.7026 37.8704 74.4838 38.071 74.3061 38.3262C74.1329 38.5768 74.0031 38.8662 73.9165 39.1943C73.8299 39.5179 73.7866 39.862 73.7866 40.2266ZM81.8191 37.7656V44H80.5544V36.6035H81.7849L81.8191 37.7656ZM84.1296 36.5625L84.1228 37.7383C84.018 37.7155 83.9177 37.7018 83.822 37.6973C83.7309 37.6882 83.626 37.6836 83.5076 37.6836C83.2159 37.6836 82.9584 37.7292 82.7351 37.8203C82.5118 37.9115 82.3227 38.0391 82.1677 38.2031C82.0128 38.3672 81.8897 38.5632 81.7986 38.791C81.712 39.0143 81.655 39.2604 81.6277 39.5293L81.2722 39.7344C81.2722 39.2878 81.3155 38.8685 81.4021 38.4766C81.4932 38.0846 81.6322 37.7383 81.8191 37.4375C82.0059 37.1322 82.2429 36.8952 82.53 36.7266C82.8217 36.5534 83.168 36.4668 83.5691 36.4668C83.6602 36.4668 83.765 36.4782 83.8835 36.501C84.002 36.5192 84.0841 36.5397 84.1296 36.5625ZM91.2942 36.6035V37.5742H87.2952V36.6035H91.2942ZM88.6487 34.8057H89.9134V42.168C89.9134 42.4186 89.9521 42.6077 90.0296 42.7354C90.107 42.863 90.2073 42.9473 90.3304 42.9883C90.4534 43.0293 90.5856 43.0498 90.7268 43.0498C90.8317 43.0498 90.941 43.0407 91.055 43.0225C91.1735 42.9997 91.2623 42.9814 91.3216 42.9678L91.3284 44C91.2281 44.0319 91.096 44.0615 90.9319 44.0889C90.7724 44.1208 90.5787 44.1367 90.3509 44.1367C90.041 44.1367 89.7561 44.0752 89.4964 43.9521C89.2366 43.8291 89.0292 43.624 88.8743 43.3369C88.7239 43.0452 88.6487 42.6533 88.6487 42.1611V34.8057ZM93.7554 33.5V44H92.4908V33.5H93.7554ZM93.4546 40.0215L92.9283 40.001C92.9328 39.4951 93.008 39.028 93.1539 38.5996C93.2997 38.1667 93.5048 37.7907 93.7691 37.4717C94.0334 37.1527 94.3479 36.9066 94.7125 36.7334C95.0816 36.5557 95.4895 36.4668 95.9361 36.4668C96.3007 36.4668 96.6288 36.5169 96.9205 36.6172C97.2121 36.7129 97.4605 36.8678 97.6656 37.082C97.8752 37.2962 98.0347 37.5742 98.1441 37.916C98.2535 38.2533 98.3082 38.6657 98.3082 39.1533V44H97.0367V39.1396C97.0367 38.7523 96.9797 38.4424 96.8658 38.21C96.7518 37.973 96.5855 37.8021 96.3668 37.6973C96.148 37.5879 95.8791 37.5332 95.5601 37.5332C95.2457 37.5332 94.9585 37.5993 94.6988 37.7314C94.4436 37.8636 94.2225 38.0459 94.0357 38.2783C93.8534 38.5107 93.7099 38.7773 93.605 39.0781C93.5048 39.3743 93.4546 39.6888 93.4546 40.0215ZM102.984 44.1367C102.469 44.1367 102.002 44.0501 101.583 43.877C101.168 43.6992 100.81 43.4508 100.51 43.1318C100.213 42.8128 99.9855 42.4346 99.826 41.9971C99.6665 41.5596 99.5867 41.0811 99.5867 40.5615V40.2744C99.5867 39.6729 99.6756 39.1374 99.8533 38.668C100.031 38.194 100.273 37.793 100.578 37.4648C100.883 37.1367 101.23 36.8883 101.617 36.7197C102.004 36.5511 102.405 36.4668 102.82 36.4668C103.349 36.4668 103.805 36.5579 104.187 36.7402C104.575 36.9225 104.891 37.1777 105.138 37.5059C105.384 37.8294 105.566 38.2122 105.684 38.6543C105.803 39.0918 105.862 39.5703 105.862 40.0898V40.6572H100.339V39.625H104.597V39.5293C104.579 39.2012 104.511 38.8822 104.392 38.5723C104.278 38.2624 104.096 38.0072 103.846 37.8066C103.595 37.6061 103.253 37.5059 102.82 37.5059C102.533 37.5059 102.269 37.5674 102.027 37.6904C101.786 37.8089 101.578 37.9867 101.405 38.2236C101.232 38.4606 101.097 38.75 101.002 39.0918C100.906 39.4336 100.858 39.8278 100.858 40.2744V40.5615C100.858 40.9124 100.906 41.2428 101.002 41.5527C101.102 41.8581 101.246 42.127 101.432 42.3594C101.624 42.5918 101.854 42.7741 102.123 42.9062C102.396 43.0384 102.706 43.1045 103.053 43.1045C103.499 43.1045 103.877 43.0133 104.187 42.8311C104.497 42.6488 104.768 42.4049 105.001 42.0996L105.766 42.708C105.607 42.9495 105.404 43.1797 105.158 43.3984C104.912 43.6172 104.609 43.7949 104.249 43.9316C103.893 44.0684 103.472 44.1367 102.984 44.1367ZM114.1 40.0967H111.441V39.0234H114.1C114.615 39.0234 115.032 38.9414 115.351 38.7773C115.67 38.6133 115.902 38.3854 116.048 38.0938C116.199 37.8021 116.274 37.4694 116.274 37.0957C116.274 36.7539 116.199 36.4326 116.048 36.1318C115.902 35.8311 115.67 35.5895 115.351 35.4072C115.032 35.2204 114.615 35.127 114.1 35.127H111.748V44H110.429V34.0469H114.1C114.852 34.0469 115.488 34.1768 116.007 34.4365C116.527 34.6963 116.921 35.0563 117.19 35.5166C117.459 35.9723 117.593 36.4941 117.593 37.082C117.593 37.7201 117.459 38.2646 117.19 38.7158C116.921 39.167 116.527 39.5111 116.007 39.748C115.488 39.9805 114.852 40.0967 114.1 40.0967ZM120.048 37.7656V44H118.783V36.6035H120.013L120.048 37.7656ZM122.358 36.5625L122.351 37.7383C122.246 37.7155 122.146 37.7018 122.05 37.6973C121.959 37.6882 121.854 37.6836 121.736 37.6836C121.444 37.6836 121.187 37.7292 120.964 37.8203C120.74 37.9115 120.551 38.0391 120.396 38.2031C120.241 38.3672 120.118 38.5632 120.027 38.791C119.94 39.0143 119.883 39.2604 119.856 39.5293L119.501 39.7344C119.501 39.2878 119.544 38.8685 119.631 38.4766C119.722 38.0846 119.861 37.7383 120.048 37.4375C120.234 37.1322 120.471 36.8952 120.758 36.7266C121.05 36.5534 121.396 36.4668 121.798 36.4668C121.889 36.4668 121.993 36.4782 122.112 36.501C122.23 36.5192 122.312 36.5397 122.358 36.5625ZM122.768 40.3838V40.2266C122.768 39.6934 122.846 39.1989 123.001 38.7432C123.156 38.2829 123.379 37.8841 123.671 37.5469C123.962 37.2051 124.316 36.9408 124.73 36.7539C125.145 36.5625 125.61 36.4668 126.125 36.4668C126.644 36.4668 127.112 36.5625 127.526 36.7539C127.946 36.9408 128.301 37.2051 128.593 37.5469C128.889 37.8841 129.115 38.2829 129.269 38.7432C129.424 39.1989 129.502 39.6934 129.502 40.2266V40.3838C129.502 40.917 129.424 41.4115 129.269 41.8672C129.115 42.3229 128.889 42.7217 128.593 43.0635C128.301 43.4007 127.948 43.665 127.533 43.8564C127.123 44.0433 126.658 44.1367 126.139 44.1367C125.619 44.1367 125.152 44.0433 124.737 43.8564C124.323 43.665 123.967 43.4007 123.671 43.0635C123.379 42.7217 123.156 42.3229 123.001 41.8672C122.846 41.4115 122.768 40.917 122.768 40.3838ZM124.033 40.2266V40.3838C124.033 40.7529 124.076 41.1016 124.163 41.4297C124.25 41.7533 124.379 42.0404 124.553 42.291C124.73 42.5417 124.951 42.7399 125.216 42.8857C125.48 43.027 125.788 43.0977 126.139 43.0977C126.485 43.0977 126.788 43.027 127.048 42.8857C127.312 42.7399 127.531 42.5417 127.704 42.291C127.877 42.0404 128.007 41.7533 128.094 41.4297C128.185 41.1016 128.23 40.7529 128.23 40.3838V40.2266C128.23 39.862 128.185 39.5179 128.094 39.1943C128.007 38.8662 127.875 38.5768 127.697 38.3262C127.524 38.071 127.305 37.8704 127.041 37.7246C126.781 37.5788 126.476 37.5059 126.125 37.5059C125.779 37.5059 125.473 37.5788 125.209 37.7246C124.949 37.8704 124.73 38.071 124.553 38.3262C124.379 38.5768 124.25 38.8662 124.163 39.1943C124.076 39.5179 124.033 39.862 124.033 40.2266ZM135.463 42.5645V33.5H136.735V44H135.572L135.463 42.5645ZM130.487 40.3838V40.2402C130.487 39.6751 130.555 39.1624 130.692 38.7021C130.833 38.2373 131.031 37.8385 131.286 37.5059C131.546 37.1732 131.854 36.918 132.209 36.7402C132.569 36.5579 132.97 36.4668 133.412 36.4668C133.877 36.4668 134.283 36.5488 134.629 36.7129C134.98 36.8724 135.276 37.1071 135.518 37.417C135.764 37.7223 135.958 38.0915 136.099 38.5244C136.24 38.9574 136.338 39.4473 136.393 39.9941V40.623C136.343 41.1654 136.245 41.653 136.099 42.0859C135.958 42.5189 135.764 42.888 135.518 43.1934C135.276 43.4987 134.98 43.7334 134.629 43.8975C134.278 44.057 133.868 44.1367 133.399 44.1367C132.966 44.1367 132.569 44.0433 132.209 43.8564C131.854 43.6696 131.546 43.4076 131.286 43.0703C131.031 42.7331 130.833 42.3366 130.692 41.8809C130.555 41.4206 130.487 40.9215 130.487 40.3838ZM131.758 40.2402V40.3838C131.758 40.7529 131.794 41.0993 131.867 41.4229C131.945 41.7464 132.063 42.0312 132.223 42.2773C132.382 42.5234 132.585 42.7171 132.831 42.8584C133.077 42.9951 133.371 43.0635 133.713 43.0635C134.132 43.0635 134.476 42.9746 134.745 42.7969C135.019 42.6191 135.237 42.3844 135.402 42.0928C135.566 41.8011 135.693 41.4844 135.784 41.1426V39.4951C135.73 39.2445 135.65 39.0029 135.545 38.7705C135.445 38.5335 135.313 38.3239 135.149 38.1416C134.989 37.9548 134.791 37.8066 134.554 37.6973C134.321 37.5879 134.046 37.5332 133.727 37.5332C133.38 37.5332 133.082 37.6061 132.831 37.752C132.585 37.8932 132.382 38.0892 132.223 38.3398C132.063 38.5859 131.945 38.873 131.867 39.2012C131.794 39.5247 131.758 39.8711 131.758 40.2402ZM142.942 42.291V36.6035H144.213V44H143.003L142.942 42.291ZM143.181 40.7324L143.707 40.7188C143.707 41.2109 143.655 41.6667 143.55 42.0859C143.45 42.5007 143.286 42.8607 143.058 43.166C142.83 43.4714 142.532 43.7106 142.163 43.8838C141.793 44.0524 141.345 44.1367 140.816 44.1367C140.456 44.1367 140.125 44.0843 139.825 43.9795C139.528 43.8747 139.273 43.7129 139.059 43.4941C138.845 43.2754 138.679 42.9906 138.56 42.6396C138.446 42.2887 138.389 41.8672 138.389 41.375V36.6035H139.654V41.3887C139.654 41.7214 139.69 41.9971 139.763 42.2158C139.841 42.43 139.943 42.6009 140.071 42.7285C140.203 42.8516 140.349 42.9382 140.508 42.9883C140.672 43.0384 140.841 43.0635 141.014 43.0635C141.552 43.0635 141.978 42.9609 142.292 42.7559C142.607 42.5462 142.832 42.266 142.969 41.915C143.11 41.5596 143.181 41.1654 143.181 40.7324ZM148.814 43.0977C149.115 43.0977 149.393 43.0361 149.648 42.9131C149.903 42.79 150.113 42.6214 150.277 42.4072C150.441 42.1885 150.535 41.9401 150.557 41.6621H151.76C151.738 42.0996 151.59 42.5075 151.316 42.8857C151.047 43.2594 150.694 43.5625 150.257 43.7949C149.819 44.0228 149.338 44.1367 148.814 44.1367C148.258 44.1367 147.773 44.0387 147.358 43.8428C146.948 43.6468 146.606 43.3779 146.333 43.0361C146.064 42.6943 145.861 42.3024 145.724 41.8604C145.592 41.4137 145.526 40.9421 145.526 40.4453V40.1582C145.526 39.6615 145.592 39.1921 145.724 38.75C145.861 38.3034 146.064 37.9092 146.333 37.5674C146.606 37.2256 146.948 36.9567 147.358 36.7607C147.773 36.5648 148.258 36.4668 148.814 36.4668C149.393 36.4668 149.899 36.5853 150.332 36.8223C150.765 37.0547 151.104 37.3737 151.35 37.7793C151.601 38.1803 151.738 38.6361 151.76 39.1465H150.557C150.535 38.8411 150.448 38.5654 150.298 38.3193C150.152 38.0732 149.951 37.8773 149.696 37.7314C149.445 37.5811 149.151 37.5059 148.814 37.5059C148.427 37.5059 148.101 37.5833 147.837 37.7383C147.577 37.8887 147.37 38.0938 147.215 38.3535C147.064 38.6087 146.955 38.8936 146.886 39.208C146.823 39.5179 146.791 39.8346 146.791 40.1582V40.4453C146.791 40.7689 146.823 41.0879 146.886 41.4023C146.95 41.7168 147.057 42.0016 147.208 42.2568C147.363 42.512 147.57 42.7171 147.83 42.8721C148.094 43.0225 148.422 43.0977 148.814 43.0977ZM155.992 36.6035V37.5742H151.993V36.6035H155.992ZM153.347 34.8057H154.611V42.168C154.611 42.4186 154.65 42.6077 154.728 42.7354C154.805 42.863 154.905 42.9473 155.028 42.9883C155.151 43.0293 155.284 43.0498 155.425 43.0498C155.53 43.0498 155.639 43.0407 155.753 43.0225C155.871 42.9997 155.96 42.9814 156.02 42.9678L156.026 44C155.926 44.0319 155.794 44.0615 155.63 44.0889C155.47 44.1208 155.277 44.1367 155.049 44.1367C154.739 44.1367 154.454 44.0752 154.194 43.9521C153.935 43.8291 153.727 43.624 153.572 43.3369C153.422 43.0452 153.347 42.6533 153.347 42.1611V34.8057Z" fill="#323C47"/>
<path opacity="0.696388" d="M19.9155 12.3213V20.1846H18.9219V13.5621L16.9185 14.2925V13.3956L19.7598 12.3213H19.9155ZM25.7875 12.3213V20.1846H24.7938V13.5621L22.7904 14.2925V13.3956L25.6317 12.3213H25.7875ZM28.4583 19.6582C28.4583 19.49 28.5102 19.3485 28.6141 19.2339C28.7215 19.1158 28.8755 19.0567 29.076 19.0567C29.2765 19.0567 29.4287 19.1158 29.5325 19.2339C29.6399 19.3485 29.6937 19.49 29.6937 19.6582C29.6937 19.823 29.6399 19.9626 29.5325 20.0772C29.4287 20.1918 29.2765 20.2491 29.076 20.2491C28.8755 20.2491 28.7215 20.1918 28.6141 20.0772C28.5102 19.9626 28.4583 19.823 28.4583 19.6582ZM28.4637 14.9156C28.4637 14.7473 28.5156 14.6058 28.6194 14.4913C28.7269 14.3731 28.8808 14.314 29.0813 14.314C29.2819 14.314 29.4341 14.3731 29.5379 14.4913C29.6453 14.6058 29.699 14.7473 29.699 14.9156C29.699 15.0803 29.6453 15.2199 29.5379 15.3345C29.4341 15.4491 29.2819 15.5064 29.0813 15.5064C28.8808 15.5064 28.7269 15.4491 28.6194 15.3345C28.5156 15.2199 28.4637 15.0803 28.4637 14.9156ZM35.6516 15.6514V16.8438C35.6516 17.4847 35.5943 18.0254 35.4797 18.4659C35.3651 18.9063 35.2004 19.2608 34.9855 19.5293C34.7707 19.7979 34.5111 19.993 34.2067 20.1148C33.906 20.233 33.5658 20.292 33.1862 20.292C32.8855 20.292 32.6079 20.2544 32.3537 20.1792C32.0995 20.104 31.8703 19.9841 31.6662 19.8194C31.4657 19.6511 31.2938 19.4327 31.1506 19.1641C31.0074 18.8956 30.8981 18.5697 30.823 18.1866C30.7478 17.8034 30.7102 17.3558 30.7102 16.8438V15.6514C30.7102 15.0105 30.7675 14.4734 30.882 14.0401C31.0002 13.6068 31.1667 13.2595 31.3815 12.9981C31.5964 12.7331 31.8542 12.5433 32.155 12.4288C32.4593 12.3142 32.7995 12.2569 33.1755 12.2569C33.4799 12.2569 33.7592 12.2945 34.0134 12.3697C34.2712 12.4413 34.5004 12.5577 34.7009 12.7188C34.9014 12.8763 35.0715 13.0876 35.2111 13.3526C35.3544 13.614 35.4636 13.9345 35.5388 14.314C35.614 14.6936 35.6516 15.1394 35.6516 15.6514ZM34.6525 17.0049V15.4849C34.6525 15.134 34.6311 14.8261 34.5881 14.5611C34.5487 14.2925 34.4896 14.0634 34.4108 13.8736C34.3321 13.6838 34.2318 13.5298 34.1101 13.4117C33.9919 13.2935 33.854 13.2076 33.6965 13.1539C33.5425 13.0966 33.3689 13.0679 33.1755 13.0679C32.9392 13.0679 32.7297 13.1127 32.5471 13.2022C32.3645 13.2881 32.2105 13.426 32.0852 13.6158C31.9634 13.8055 31.8703 14.0544 31.8059 14.3624C31.7414 14.6703 31.7092 15.0445 31.7092 15.4849V17.0049C31.7092 17.3558 31.7289 17.6656 31.7683 17.9341C31.8112 18.2027 31.8739 18.4354 31.9563 18.6324C32.0386 18.8257 32.1389 18.9851 32.257 19.1104C32.3752 19.2357 32.5113 19.3288 32.6652 19.3897C32.8228 19.447 32.9965 19.4756 33.1862 19.4756C33.4297 19.4756 33.6428 19.4291 33.8254 19.336C34.008 19.2429 34.1602 19.0979 34.2819 18.9009C34.4073 18.7004 34.5004 18.4444 34.5612 18.1329C34.6221 17.8178 34.6525 17.4418 34.6525 17.0049ZM41.5235 15.6514V16.8438C41.5235 17.4847 41.4662 18.0254 41.3517 18.4659C41.2371 18.9063 41.0724 19.2608 40.8575 19.5293C40.6427 19.7979 40.3831 19.993 40.0787 20.1148C39.7779 20.233 39.4378 20.292 39.0582 20.292C38.7574 20.292 38.4799 20.2544 38.2257 20.1792C37.9715 20.104 37.7423 19.9841 37.5382 19.8194C37.3377 19.6511 37.1658 19.4327 37.0226 19.1641C36.8793 18.8956 36.7701 18.5697 36.6949 18.1866C36.6197 17.8034 36.5821 17.3558 36.5821 16.8438V15.6514C36.5821 15.0105 36.6394 14.4734 36.754 14.0401C36.8722 13.6068 37.0387 13.2595 37.2535 12.9981C37.4684 12.7331 37.7262 12.5433 38.027 12.4288C38.3313 12.3142 38.6715 12.2569 39.0475 12.2569C39.3518 12.2569 39.6311 12.2945 39.8854 12.3697C40.1432 12.4413 40.3723 12.5577 40.5729 12.7188C40.7734 12.8763 40.9435 13.0876 41.0831 13.3526C41.2263 13.614 41.3356 13.9345 41.4107 14.314C41.4859 14.6936 41.5235 15.1394 41.5235 15.6514ZM40.5245 17.0049V15.4849C40.5245 15.134 40.503 14.8261 40.4601 14.5611C40.4207 14.2925 40.3616 14.0634 40.2828 13.8736C40.204 13.6838 40.1038 13.5298 39.982 13.4117C39.8639 13.2935 39.726 13.2076 39.5685 13.1539C39.4145 13.0966 39.2408 13.0679 39.0475 13.0679C38.8111 13.0679 38.6017 13.1127 38.419 13.2022C38.2364 13.2881 38.0825 13.426 37.9571 13.6158C37.8354 13.8055 37.7423 14.0544 37.6778 14.3624C37.6134 14.6703 37.5812 15.0445 37.5812 15.4849V17.0049C37.5812 17.3558 37.6008 17.6656 37.6402 17.9341C37.6832 18.2027 37.7459 18.4354 37.8282 18.6324C37.9106 18.8257 38.0108 18.9851 38.129 19.1104C38.2472 19.2357 38.3832 19.3288 38.5372 19.3897C38.6948 19.447 38.8684 19.4756 39.0582 19.4756C39.3017 19.4756 39.5147 19.4291 39.6974 19.336C39.88 19.2429 40.0322 19.0979 40.1539 18.9009C40.2792 18.7004 40.3723 18.4444 40.4332 18.1329C40.4941 17.8178 40.5245 17.4418 40.5245 17.0049ZM47.7065 13.7051L45.3529 20.1846H44.391L47.101 13.0752H47.7211L47.7065 13.7051ZM49.6791 20.1846L47.3207 13.7051L47.3061 13.0752H47.9262L50.6459 20.1846H49.6791ZM49.557 17.5528V18.3243H45.5629V17.5528H49.557ZM51.5804 13.0752H52.4935L54.8226 18.8711L57.1468 13.0752H58.0648L55.1741 20.1846H54.4612L51.5804 13.0752ZM51.2825 13.0752H52.0882L52.22 17.4112V20.1846H51.2825V13.0752ZM57.5521 13.0752H58.3577V20.1846H57.4202V17.4112L57.5521 13.0752ZM64.1105 16.4517V17.2681H61.4894V16.4517H64.1105ZM70.3383 12.3213V20.1846H69.3446V13.5621L67.3412 14.2925V13.3956L70.1825 12.3213H70.3383ZM76.2103 12.3213V20.1846H75.2166V13.5621L73.2132 14.2925V13.3956L76.0545 12.3213H76.2103ZM78.8811 19.6582C78.8811 19.49 78.933 19.3485 79.0368 19.2339C79.1443 19.1158 79.2982 19.0567 79.4987 19.0567C79.6993 19.0567 79.8514 19.1158 79.9553 19.2339C80.0627 19.3485 80.1164 19.49 80.1164 19.6582C80.1164 19.823 80.0627 19.9626 79.9553 20.0772C79.8514 20.1918 79.6993 20.2491 79.4987 20.2491C79.2982 20.2491 79.1443 20.1918 79.0368 20.0772C78.933 19.9626 78.8811 19.823 78.8811 19.6582ZM78.8864 14.9156C78.8864 14.7473 78.9384 14.6058 79.0422 14.4913C79.1496 14.3731 79.3036 14.314 79.5041 14.314C79.7046 14.314 79.8568 14.3731 79.9607 14.4913C80.0681 14.6058 80.1218 14.7473 80.1218 14.9156C80.1218 15.0803 80.0681 15.2199 79.9607 15.3345C79.8568 15.4491 79.7046 15.5064 79.5041 15.5064C79.3036 15.5064 79.1496 15.4491 79.0422 15.3345C78.9384 15.2199 78.8864 15.0803 78.8864 14.9156ZM82.6153 15.7857H83.3243C83.6717 15.7857 83.9581 15.7284 84.1837 15.6138C84.4129 15.4957 84.583 15.3363 84.694 15.1358C84.8085 14.9317 84.8658 14.7025 84.8658 14.4483C84.8658 14.1475 84.8157 13.8951 84.7154 13.691C84.6152 13.4869 84.4648 13.3329 84.2643 13.229C84.0638 13.1252 83.8095 13.0733 83.5016 13.0733C83.2223 13.0733 82.9752 13.1288 82.7604 13.2398C82.5491 13.3472 82.3826 13.5012 82.2609 13.7017C82.1427 13.9022 82.0836 14.1386 82.0836 14.4107H81.09C81.09 14.0132 81.1902 13.6516 81.3907 13.3257C81.5913 12.9999 81.8723 12.7403 82.234 12.5469C82.5992 12.3536 83.0218 12.2569 83.5016 12.2569C83.9742 12.2569 84.3878 12.341 84.7423 12.5093C85.0968 12.674 85.3725 12.9211 85.5695 13.2505C85.7664 13.5764 85.8649 13.9828 85.8649 14.4698C85.8649 14.6667 85.8183 14.878 85.7252 15.1036C85.6357 15.3256 85.4943 15.5332 85.3009 15.7266C85.1111 15.92 84.864 16.0793 84.5597 16.2046C84.2553 16.3264 83.8901 16.3873 83.464 16.3873H82.6153V15.7857ZM82.6153 16.6021V16.0059H83.464C83.9617 16.0059 84.3735 16.065 84.6993 16.1832C85.0252 16.3013 85.2812 16.4589 85.4674 16.6558C85.6572 16.8527 85.7897 17.0694 85.8649 17.3057C85.9436 17.5385 85.983 17.7712 85.983 18.004C85.983 18.3692 85.9204 18.6932 85.795 18.9761C85.6733 19.259 85.4996 19.4989 85.274 19.6958C85.052 19.8928 84.7906 20.0414 84.4899 20.1416C84.1891 20.2419 83.8614 20.292 83.507 20.292C83.1668 20.292 82.8463 20.2437 82.5455 20.147C82.2483 20.0503 81.9851 19.9107 81.756 19.7281C81.5268 19.5419 81.3478 19.3145 81.2189 19.0459C81.09 18.7738 81.0255 18.4641 81.0255 18.1167H82.0192C82.0192 18.3889 82.0782 18.627 82.1964 18.8311C82.3181 19.0352 82.49 19.1945 82.712 19.3091C82.9376 19.4201 83.2026 19.4756 83.507 19.4756C83.8113 19.4756 84.0727 19.4237 84.2911 19.3199C84.5131 19.2124 84.6832 19.0513 84.8014 18.8365C84.9231 18.6216 84.984 18.3513 84.984 18.0254C84.984 17.6996 84.916 17.4328 84.7799 17.2251C84.6438 17.0139 84.4505 16.8581 84.1998 16.7579C83.9528 16.654 83.6609 16.6021 83.3243 16.6021H82.6153ZM91.9463 15.6514V16.8438C91.9463 17.4847 91.889 18.0254 91.7744 18.4659C91.6598 18.9063 91.4951 19.2608 91.2803 19.5293C91.0654 19.7979 90.8058 19.993 90.5015 20.1148C90.2007 20.233 89.8605 20.292 89.481 20.292C89.1802 20.292 88.9027 20.2544 88.6485 20.1792C88.3942 20.104 88.1651 19.9841 87.961 19.8194C87.7604 19.6511 87.5886 19.4327 87.4453 19.1641C87.3021 18.8956 87.1929 18.5697 87.1177 18.1866C87.0425 17.8034 87.0049 17.3558 87.0049 16.8438V15.6514C87.0049 15.0105 87.0622 14.4734 87.1768 14.0401C87.2949 13.6068 87.4614 13.2595 87.6763 12.9981C87.8911 12.7331 88.1489 12.5433 88.4497 12.4288C88.7541 12.3142 89.0943 12.2569 89.4702 12.2569C89.7746 12.2569 90.0539 12.2945 90.3081 12.3697C90.5659 12.4413 90.7951 12.5577 90.9956 12.7188C91.1961 12.8763 91.3662 13.0876 91.5059 13.3526C91.6491 13.614 91.7583 13.9345 91.8335 14.314C91.9087 14.6936 91.9463 15.1394 91.9463 15.6514ZM90.9473 17.0049V15.4849C90.9473 15.134 90.9258 14.8261 90.8828 14.5611C90.8434 14.2925 90.7844 14.0634 90.7056 13.8736C90.6268 13.6838 90.5265 13.5298 90.4048 13.4117C90.2866 13.2935 90.1488 13.2076 89.9912 13.1539C89.8373 13.0966 89.6636 13.0679 89.4702 13.0679C89.2339 13.0679 89.0244 13.1127 88.8418 13.2022C88.6592 13.2881 88.5052 13.426 88.3799 13.6158C88.2582 13.8055 88.1651 14.0544 88.1006 14.3624C88.0361 14.6703 88.0039 15.0445 88.0039 15.4849V17.0049C88.0039 17.3558 88.0236 17.6656 88.063 17.9341C88.106 18.2027 88.1686 18.4354 88.251 18.6324C88.3333 18.8257 88.4336 18.9851 88.5518 19.1104C88.6699 19.2357 88.806 19.3288 88.96 19.3897C89.1175 19.447 89.2912 19.4756 89.481 19.4756C89.7245 19.4756 89.9375 19.4291 90.1201 19.336C90.3027 19.2429 90.4549 19.0979 90.5767 18.9009C90.702 18.7004 90.7951 18.4444 90.856 18.1329C90.9168 17.8178 90.9473 17.4418 90.9473 17.0049ZM98.1292 13.7051L95.7757 20.1846H94.8138L97.5238 13.0752H98.1439L98.1292 13.7051ZM100.102 20.1846L97.7435 13.7051L97.7288 13.0752H98.3489L101.069 20.1846H100.102ZM99.9798 17.5528V18.3243H95.9857V17.5528H99.9798ZM102.003 13.0752H102.916L105.245 18.8711L107.57 13.0752H108.488L105.597 20.1846H104.884L102.003 13.0752ZM101.705 13.0752H102.511L102.643 17.4112V20.1846H101.705V13.0752ZM107.975 13.0752H108.78V20.1846H107.843V17.4112L107.975 13.0752Z" fill="#868686"/>
<path opacity="0.696388" d="M182.56 74.7208V81.8692H181.656V75.8487L179.835 76.5128V75.6974L182.418 74.7208H182.56ZM189.392 77.7481V78.8321C189.392 79.4148 189.34 79.9063 189.236 80.3067C189.131 80.7071 188.982 81.0294 188.786 81.2735C188.591 81.5177 188.355 81.6951 188.078 81.8058C187.805 81.9132 187.496 81.9669 187.151 81.9669C186.877 81.9669 186.625 81.9327 186.394 81.8643C186.163 81.796 185.954 81.6869 185.769 81.5372C185.587 81.3842 185.43 81.1856 185.3 80.9415C185.17 80.6974 185.071 80.4011 185.002 80.0528C184.934 79.7045 184.9 79.2976 184.9 78.8321V77.7481C184.9 77.1655 184.952 76.6772 185.056 76.2833C185.163 75.8894 185.315 75.5737 185.51 75.336C185.705 75.0951 185.94 74.9226 186.213 74.8185C186.49 74.7143 186.799 74.6622 187.141 74.6622C187.418 74.6622 187.671 74.6964 187.903 74.7647C188.137 74.8298 188.345 74.9356 188.528 75.0821C188.71 75.2254 188.865 75.4174 188.991 75.6583C189.122 75.8959 189.221 76.1873 189.289 76.5323C189.358 76.8774 189.392 77.2826 189.392 77.7481ZM188.484 78.9786V77.5968C188.484 77.2778 188.464 76.9978 188.425 76.7569C188.389 76.5128 188.336 76.3045 188.264 76.1319C188.192 75.9594 188.101 75.8194 187.991 75.712C187.883 75.6046 187.758 75.5265 187.615 75.4776C187.475 75.4255 187.317 75.3995 187.141 75.3995C186.926 75.3995 186.736 75.4402 186.57 75.5216C186.404 75.5997 186.264 75.725 186.15 75.8976C186.039 76.0701 185.954 76.2963 185.896 76.5763C185.837 76.8562 185.808 77.1964 185.808 77.5968V78.9786C185.808 79.2976 185.826 79.5792 185.862 79.8233C185.901 80.0675 185.958 80.2791 186.032 80.4581C186.107 80.6339 186.199 80.7787 186.306 80.8927C186.413 81.0066 186.537 81.0912 186.677 81.1466C186.82 81.1987 186.978 81.2247 187.151 81.2247C187.372 81.2247 187.566 81.1824 187.732 81.0977C187.898 81.0131 188.036 80.8813 188.147 80.7022C188.261 80.5199 188.345 80.2872 188.401 80.004C188.456 79.7175 188.484 79.3757 188.484 78.9786ZM195.674 80.9659V78.2462C195.674 78.0379 195.631 77.8572 195.547 77.7042C195.465 77.5479 195.342 77.4275 195.176 77.3429C195.01 77.2582 194.805 77.2159 194.56 77.2159C194.333 77.2159 194.132 77.255 193.96 77.3331C193.791 77.4112 193.657 77.5138 193.559 77.6407C193.465 77.7677 193.418 77.9044 193.418 78.0509H192.514C192.514 77.8621 192.563 77.6749 192.661 77.4893C192.759 77.3038 192.899 77.1362 193.081 76.9864C193.266 76.8334 193.488 76.713 193.745 76.6251C194.005 76.5339 194.295 76.4884 194.614 76.4884C194.998 76.4884 195.337 76.5535 195.63 76.6837C195.926 76.8139 196.157 77.0108 196.323 77.2745C196.492 77.5349 196.577 77.8621 196.577 78.256V80.7169C196.577 80.8927 196.592 81.0798 196.621 81.2784C196.653 81.477 196.701 81.6479 196.763 81.7911V81.8692H195.82C195.775 81.7651 195.739 81.6267 195.713 81.4542C195.687 81.2784 195.674 81.1157 195.674 80.9659ZM195.83 78.6661L195.84 79.3009H194.927C194.669 79.3009 194.44 79.322 194.238 79.3643C194.036 79.4034 193.867 79.4636 193.73 79.545C193.594 79.6264 193.489 79.7289 193.418 79.8526C193.346 79.9731 193.31 80.1147 193.31 80.2774C193.31 80.4435 193.348 80.5948 193.423 80.7315C193.498 80.8683 193.61 80.9773 193.76 81.0587C193.913 81.1368 194.1 81.1759 194.321 81.1759C194.598 81.1759 194.842 81.1173 195.054 81.0001C195.265 80.8829 195.433 80.7397 195.556 80.5704C195.683 80.4011 195.752 80.2367 195.762 80.0772L196.147 80.5118C196.124 80.6485 196.063 80.7999 195.962 80.9659C195.861 81.1319 195.726 81.2914 195.556 81.4444C195.39 81.5942 195.192 81.7195 194.961 81.8204C194.733 81.9181 194.476 81.9669 194.189 81.9669C193.831 81.9669 193.517 81.8969 193.247 81.7569C192.98 81.617 192.772 81.4298 192.622 81.1954C192.475 80.9578 192.402 80.6925 192.402 80.3995C192.402 80.1163 192.458 79.8673 192.568 79.6524C192.679 79.4343 192.838 79.2537 193.047 79.1104C193.255 78.964 193.506 78.8533 193.799 78.7784C194.092 78.7035 194.419 78.6661 194.78 78.6661H195.83ZM199.923 76.586V77.2794H197.066V76.586H199.923ZM198.033 75.3018H198.937V80.5606C198.937 80.7397 198.964 80.8748 199.02 80.9659C199.075 81.0571 199.147 81.1173 199.234 81.1466C199.322 81.1759 199.417 81.1905 199.518 81.1905C199.593 81.1905 199.671 81.184 199.752 81.171C199.837 81.1547 199.9 81.1417 199.942 81.1319L199.947 81.8692C199.876 81.892 199.781 81.9132 199.664 81.9327C199.55 81.9555 199.412 81.9669 199.249 81.9669C199.028 81.9669 198.824 81.9229 198.639 81.8351C198.453 81.7472 198.305 81.6007 198.194 81.3956C198.087 81.1873 198.033 80.9073 198.033 80.5558V75.3018ZM202.908 76.586V77.2794H200.051V76.586H202.908ZM201.018 75.3018H201.921V80.5606C201.921 80.7397 201.949 80.8748 202.004 80.9659C202.06 81.0571 202.131 81.1173 202.219 81.1466C202.307 81.1759 202.401 81.1905 202.502 81.1905C202.577 81.1905 202.655 81.184 202.737 81.171C202.821 81.1547 202.885 81.1417 202.927 81.1319L202.932 81.8692C202.86 81.892 202.766 81.9132 202.649 81.9327C202.535 81.9555 202.397 81.9669 202.234 81.9669C202.012 81.9669 201.809 81.9229 201.623 81.8351C201.438 81.7472 201.29 81.6007 201.179 81.3956C201.072 81.1873 201.018 80.9073 201.018 80.5558V75.3018ZM206.796 80.9659V78.2462C206.796 78.0379 206.753 77.8572 206.669 77.7042C206.587 77.5479 206.464 77.4275 206.298 77.3429C206.131 77.2582 205.926 77.2159 205.682 77.2159C205.454 77.2159 205.254 77.255 205.082 77.3331C204.912 77.4112 204.779 77.5138 204.681 77.6407C204.587 77.7677 204.54 77.9044 204.54 78.0509H203.636C203.636 77.8621 203.685 77.6749 203.783 77.4893C203.881 77.3038 204.02 77.1362 204.203 76.9864C204.388 76.8334 204.61 76.713 204.867 76.6251C205.127 76.5339 205.417 76.4884 205.736 76.4884C206.12 76.4884 206.459 76.5535 206.752 76.6837C207.048 76.8139 207.279 77.0108 207.445 77.2745C207.614 77.5349 207.699 77.8621 207.699 78.256V80.7169C207.699 80.8927 207.714 81.0798 207.743 81.2784C207.775 81.477 207.823 81.6479 207.884 81.7911V81.8692H206.942C206.896 81.7651 206.861 81.6267 206.835 81.4542C206.809 81.2784 206.796 81.1157 206.796 80.9659ZM206.952 78.6661L206.962 79.3009H206.048C205.791 79.3009 205.562 79.322 205.36 79.3643C205.158 79.4034 204.989 79.4636 204.852 79.545C204.715 79.6264 204.611 79.7289 204.54 79.8526C204.468 79.9731 204.432 80.1147 204.432 80.2774C204.432 80.4435 204.47 80.5948 204.545 80.7315C204.619 80.8683 204.732 80.9773 204.881 81.0587C205.034 81.1368 205.222 81.1759 205.443 81.1759C205.72 81.1759 205.964 81.1173 206.175 81.0001C206.387 80.8829 206.555 80.7397 206.678 80.5704C206.805 80.4011 206.874 80.2367 206.883 80.0772L207.269 80.5118C207.246 80.6485 207.185 80.7999 207.084 80.9659C206.983 81.1319 206.848 81.2914 206.678 81.4444C206.512 81.5942 206.314 81.7195 206.083 81.8204C205.855 81.9181 205.598 81.9669 205.311 81.9669C204.953 81.9669 204.639 81.8969 204.369 81.7569C204.102 81.617 203.894 81.4298 203.744 81.1954C203.597 80.9578 203.524 80.6925 203.524 80.3995C203.524 80.1163 203.579 79.8673 203.69 79.6524C203.801 79.4343 203.96 79.2537 204.169 79.1104C204.377 78.964 204.628 78.8533 204.921 78.7784C205.214 78.7035 205.541 78.6661 205.902 78.6661H206.952ZM210.947 81.2247C211.162 81.2247 211.361 81.1808 211.543 81.0929C211.725 81.005 211.875 80.8845 211.992 80.7315C212.109 80.5753 212.176 80.3979 212.192 80.1993H213.052C213.035 80.5118 212.93 80.8032 212.734 81.0733C212.542 81.3403 212.29 81.5567 211.977 81.7227C211.665 81.8855 211.322 81.9669 210.947 81.9669C210.55 81.9669 210.203 81.8969 209.907 81.7569C209.614 81.617 209.37 81.4249 209.175 81.1808C208.983 80.9366 208.838 80.6567 208.74 80.3409C208.646 80.0219 208.599 79.685 208.599 79.3302V79.1251C208.599 78.7703 208.646 78.435 208.74 78.1192C208.838 77.8002 208.983 77.5186 209.175 77.2745C209.37 77.0304 209.614 76.8383 209.907 76.6983C210.203 76.5584 210.55 76.4884 210.947 76.4884C211.361 76.4884 211.722 76.573 212.031 76.7423C212.34 76.9083 212.583 77.1362 212.759 77.4259C212.938 77.7123 213.035 78.0379 213.052 78.4024H212.192C212.176 78.1843 212.114 77.9874 212.007 77.8116C211.903 77.6358 211.759 77.4959 211.577 77.3917C211.398 77.2843 211.188 77.2306 210.947 77.2306C210.67 77.2306 210.438 77.2859 210.249 77.3966C210.063 77.504 209.915 77.6505 209.805 77.836C209.697 78.0183 209.619 78.2218 209.57 78.4464C209.525 78.6677 209.502 78.894 209.502 79.1251V79.3302C209.502 79.5613 209.525 79.7892 209.57 80.0138C209.616 80.2384 209.692 80.4418 209.8 80.6241C209.91 80.8064 210.059 80.9529 210.244 81.0636C210.433 81.171 210.667 81.2247 210.947 81.2247ZM214.684 74.3692V81.8692H213.78V74.3692H214.684ZM214.469 79.0274L214.093 79.0128C214.096 78.6515 214.15 78.3178 214.254 78.0118C214.358 77.7026 214.505 77.434 214.694 77.2061C214.882 76.9783 215.107 76.8025 215.367 76.6788C215.631 76.5518 215.922 76.4884 216.241 76.4884C216.502 76.4884 216.736 76.5242 216.945 76.5958C217.153 76.6642 217.33 76.7748 217.477 76.9278C217.626 77.0808 217.74 77.2794 217.819 77.5235C217.897 77.7644 217.936 78.059 217.936 78.4073V81.8692H217.028V78.3976C217.028 78.1209 216.987 77.8995 216.905 77.7335C216.824 77.5642 216.705 77.4421 216.549 77.3673C216.393 77.2892 216.201 77.2501 215.973 77.2501C215.748 77.2501 215.543 77.2973 215.358 77.3917C215.175 77.4861 215.017 77.6163 214.884 77.7823C214.754 77.9483 214.651 78.1388 214.576 78.3536C214.505 78.5652 214.469 78.7898 214.469 79.0274ZM221.194 81.9669C220.826 81.9669 220.492 81.905 220.193 81.7813C219.897 81.6544 219.641 81.477 219.426 81.2491C219.215 81.0213 219.052 80.7511 218.938 80.4386C218.824 80.1261 218.767 79.7843 218.767 79.4132V79.2081C218.767 78.7784 218.831 78.3959 218.957 78.0606C219.084 77.7221 219.257 77.4356 219.475 77.2013C219.693 76.9669 219.941 76.7895 220.217 76.669C220.494 76.5486 220.78 76.4884 221.077 76.4884C221.454 76.4884 221.78 76.5535 222.053 76.6837C222.33 76.8139 222.556 76.9962 222.732 77.2306C222.908 77.4617 223.038 77.7351 223.123 78.0509C223.207 78.3634 223.249 78.7052 223.249 79.0763V79.4815H219.304V78.7442H222.346V78.6759C222.333 78.4415 222.284 78.2136 222.2 77.9923C222.118 77.7709 221.988 77.5886 221.809 77.4454C221.63 77.3022 221.386 77.2306 221.077 77.2306C220.872 77.2306 220.683 77.2745 220.51 77.3624C220.338 77.447 220.19 77.574 220.066 77.7433C219.942 77.9125 219.846 78.1192 219.778 78.3634C219.709 78.6075 219.675 78.8891 219.675 79.2081V79.4132C219.675 79.6638 219.709 79.8998 219.778 80.1212C219.849 80.3393 219.952 80.5313 220.085 80.6974C220.222 80.8634 220.387 80.9936 220.579 81.088C220.774 81.1824 220.995 81.2296 221.243 81.2296C221.562 81.2296 221.832 81.1645 222.053 81.0343C222.275 80.9041 222.468 80.7299 222.634 80.5118L223.181 80.9464C223.067 81.1189 222.922 81.2833 222.747 81.4395C222.571 81.5958 222.354 81.7227 222.097 81.8204C221.843 81.9181 221.542 81.9669 221.194 81.9669ZM224.916 77.6358V81.8692H224.008V76.586H224.867L224.916 77.6358ZM224.73 79.0274L224.31 79.0128C224.314 78.6515 224.361 78.3178 224.452 78.0118C224.543 77.7026 224.678 77.434 224.857 77.2061C225.036 76.9783 225.259 76.8025 225.526 76.6788C225.793 76.5518 226.102 76.4884 226.454 76.4884C226.701 76.4884 226.929 76.5242 227.137 76.5958C227.346 76.6642 227.526 76.7732 227.679 76.9229C227.832 77.0727 227.951 77.2647 228.036 77.4991C228.121 77.7335 228.163 78.0167 228.163 78.3487V81.8692H227.26V78.3927C227.26 78.116 227.212 77.8946 227.118 77.7286C227.027 77.5626 226.897 77.4421 226.727 77.3673C226.558 77.2892 226.359 77.2501 226.132 77.2501C225.865 77.2501 225.642 77.2973 225.463 77.3917C225.284 77.4861 225.14 77.6163 225.033 77.7823C224.926 77.9483 224.847 78.1388 224.799 78.3536C224.753 78.5652 224.73 78.7898 224.73 79.0274ZM228.153 78.5294L227.548 78.7149C227.551 78.4252 227.598 78.1469 227.689 77.88C227.784 77.613 227.919 77.3754 228.094 77.1671C228.274 76.9588 228.493 76.7944 228.754 76.6739C229.014 76.5502 229.312 76.4884 229.647 76.4884C229.93 76.4884 230.181 76.5258 230.399 76.6007C230.621 76.6755 230.806 76.7911 230.956 76.9474C231.109 77.1004 231.224 77.2973 231.302 77.5382C231.381 77.7791 231.42 78.0655 231.42 78.3976V81.8692H230.511V78.3878C230.511 78.0916 230.464 77.8621 230.37 77.6993C230.279 77.5333 230.149 77.4177 229.979 77.3526C229.813 77.2843 229.615 77.2501 229.384 77.2501C229.185 77.2501 229.009 77.2843 228.856 77.3526C228.703 77.421 228.575 77.5154 228.47 77.6358C228.366 77.753 228.287 77.8881 228.231 78.0411C228.179 78.1941 228.153 78.3569 228.153 78.5294ZM234.692 81.9669C234.325 81.9669 233.991 81.905 233.691 81.7813C233.395 81.6544 233.14 81.477 232.925 81.2491C232.713 81.0213 232.55 80.7511 232.437 80.4386C232.323 80.1261 232.266 79.7843 232.266 79.4132V79.2081C232.266 78.7784 232.329 78.3959 232.456 78.0606C232.583 77.7221 232.756 77.4356 232.974 77.2013C233.192 76.9669 233.439 76.7895 233.716 76.669C233.993 76.5486 234.279 76.4884 234.575 76.4884C234.953 76.4884 235.278 76.5535 235.552 76.6837C235.828 76.8139 236.055 76.9962 236.23 77.2306C236.406 77.4617 236.536 77.7351 236.621 78.0509C236.706 78.3634 236.748 78.7052 236.748 79.0763V79.4815H232.803V78.7442H235.845V78.6759C235.832 78.4415 235.783 78.2136 235.698 77.9923C235.617 77.7709 235.487 77.5886 235.308 77.4454C235.129 77.3022 234.884 77.2306 234.575 77.2306C234.37 77.2306 234.181 77.2745 234.009 77.3624C233.836 77.447 233.688 77.574 233.564 77.7433C233.441 77.9125 233.345 78.1192 233.276 78.3634C233.208 78.6075 233.174 78.8891 233.174 79.2081V79.4132C233.174 79.6638 233.208 79.8998 233.276 80.1212C233.348 80.3393 233.451 80.5313 233.584 80.6974C233.721 80.8634 233.885 80.9936 234.077 81.088C234.272 81.1824 234.494 81.2296 234.741 81.2296C235.06 81.2296 235.33 81.1645 235.552 81.0343C235.773 80.9041 235.967 80.7299 236.133 80.5118L236.68 80.9464C236.566 81.1189 236.421 81.2833 236.245 81.4395C236.069 81.5958 235.853 81.7227 235.596 81.8204C235.342 81.9181 235.041 81.9669 234.692 81.9669ZM238.419 77.714V81.8692H237.516V76.586H238.37L238.419 77.714ZM238.204 79.0274L237.828 79.0128C237.832 78.6515 237.885 78.3178 237.99 78.0118C238.094 77.7026 238.24 77.434 238.429 77.2061C238.618 76.9783 238.842 76.8025 239.103 76.6788C239.366 76.5518 239.658 76.4884 239.977 76.4884C240.237 76.4884 240.472 76.5242 240.68 76.5958C240.888 76.6642 241.066 76.7748 241.212 76.9278C241.362 77.0808 241.476 77.2794 241.554 77.5235C241.632 77.7644 241.671 78.059 241.671 78.4073V81.8692H240.763V78.3976C240.763 78.1209 240.722 77.8995 240.641 77.7335C240.56 77.5642 240.441 77.4421 240.284 77.3673C240.128 77.2892 239.936 77.2501 239.708 77.2501C239.484 77.2501 239.279 77.2973 239.093 77.3917C238.911 77.4861 238.753 77.6163 238.619 77.7823C238.489 77.9483 238.387 78.1388 238.312 78.3536C238.24 78.5652 238.204 78.7898 238.204 79.0274ZM244.968 76.586V77.2794H242.112V76.586H244.968ZM243.079 75.3018H243.982V80.5606C243.982 80.7397 244.01 80.8748 244.065 80.9659C244.12 81.0571 244.192 81.1173 244.28 81.1466C244.368 81.1759 244.462 81.1905 244.563 81.1905C244.638 81.1905 244.716 81.184 244.797 81.171C244.882 81.1547 244.946 81.1417 244.988 81.1319L244.993 81.8692C244.921 81.892 244.827 81.9132 244.71 81.9327C244.596 81.9555 244.457 81.9669 244.294 81.9669C244.073 81.9669 243.87 81.9229 243.684 81.8351C243.499 81.7472 243.35 81.6007 243.24 81.3956C243.132 81.1873 243.079 80.9073 243.079 80.5558V75.3018ZM248.817 80.4679C248.817 80.3377 248.788 80.2172 248.729 80.1065C248.674 79.9926 248.558 79.8901 248.383 79.7989C248.21 79.7045 247.95 79.6231 247.601 79.5548C247.308 79.4929 247.043 79.4197 246.805 79.3351C246.571 79.2504 246.371 79.1479 246.205 79.0274C246.042 78.907 245.917 78.7654 245.829 78.6026C245.741 78.4399 245.697 78.2494 245.697 78.0313C245.697 77.823 245.743 77.6261 245.834 77.4405C245.928 77.255 246.06 77.0906 246.229 76.9474C246.402 76.8041 246.609 76.6918 246.849 76.6104C247.09 76.5291 247.359 76.4884 247.655 76.4884C248.078 76.4884 248.44 76.5632 248.739 76.713C249.039 76.8627 249.268 77.0629 249.428 77.3136C249.587 77.561 249.667 77.836 249.667 78.1388H248.764C248.764 77.9923 248.72 77.8507 248.632 77.714C248.547 77.574 248.422 77.4584 248.256 77.3673C248.093 77.2761 247.893 77.2306 247.655 77.2306C247.404 77.2306 247.201 77.2696 247.045 77.3477C246.892 77.4226 246.779 77.5186 246.708 77.6358C246.639 77.753 246.605 77.8767 246.605 78.0069C246.605 78.1046 246.622 78.1925 246.654 78.2706C246.69 78.3455 246.752 78.4155 246.84 78.4806C246.928 78.5424 247.051 78.601 247.211 78.6563C247.37 78.7117 247.574 78.767 247.821 78.8224C248.254 78.92 248.611 79.0372 248.89 79.1739C249.17 79.3106 249.379 79.4783 249.515 79.6768C249.652 79.8754 249.721 80.1163 249.721 80.3995C249.721 80.6306 249.672 80.8422 249.574 81.0343C249.48 81.2263 249.341 81.3923 249.159 81.5323C248.98 81.669 248.765 81.7765 248.514 81.8546C248.267 81.9295 247.989 81.9669 247.68 81.9669C247.214 81.9669 246.82 81.8839 246.498 81.7179C246.176 81.5518 245.931 81.337 245.765 81.0733C245.599 80.8097 245.516 80.5313 245.516 80.2384H246.425C246.438 80.4858 246.509 80.6827 246.639 80.8292C246.77 80.9724 246.929 81.075 247.118 81.1368C247.307 81.1954 247.494 81.2247 247.68 81.2247C247.927 81.2247 248.134 81.1921 248.3 81.127C248.469 81.0619 248.597 80.9724 248.685 80.8585C248.773 80.7446 248.817 80.6143 248.817 80.4679Z" fill="#868686"/>
<path fill-rule="evenodd" clip-rule="evenodd" d="M173.999 80.5921C173.988 81.6386 172.874 82.4849 171.5 82.4849C170.126 82.4849 169.012 81.6386 169.001 80.5921H169V77.2542V76.7768V76.3C169 75.5096 169.839 74.8692 170.875 74.8692C171.91 74.8692 172.75 75.5096 172.75 76.3V76.7768V77.2542V78.9267V79.5276V80.5921H172.748C172.737 81.1119 172.184 81.5309 171.5 81.5309C170.816 81.5309 170.263 81.1119 170.252 80.5921H170.25V80.1153V79.5276V78.9267V78.2076V77.6475V77.1066V76.7768H170.875V77.239V77.7306V78.7319V79.2471V79.7559V80.1153V80.5921C170.875 80.8554 171.155 81.0689 171.5 81.0689C171.845 81.0689 172.125 80.8554 172.125 80.5921V79.7559V79.2471V78.7319V78.2076V77.3645V77.2542V76.7768V76.3H172.124C172.124 76.2951 172.125 76.2902 172.125 76.2852C172.125 75.7582 171.565 75.3313 170.875 75.3313C170.185 75.3313 169.625 75.7582 169.625 76.2852C169.625 76.2902 169.626 76.2951 169.626 76.3H169.625V76.7768V77.2542V77.3645V78.2076V79.3182V80.5921C169.625 81.3824 170.464 82.0228 171.5 82.0228C172.535 82.0228 173.375 81.3824 173.375 80.5921V79.3182V76.3V75.8232H174V76.3V80.5921H173.999Z" fill="#4DA1FF"/>
</svg>
