<svg width="271" height="304" viewBox="0 0 271 304" fill="none" xmlns="http://www.w3.org/2000/svg">
<rect width="271" height="303" fill="white"/>
<rect x="35" y="303" width="199" height="1" fill="#EEEEEE"/>
<path d="M40.8867 116.792V118H35.5371V116.969L38.0669 114.256C38.3211 113.973 38.5216 113.725 38.6685 113.51C38.8153 113.291 38.9209 113.096 38.9854 112.924C39.0534 112.749 39.0874 112.582 39.0874 112.425C39.0874 112.188 39.048 111.986 38.9692 111.818C38.8905 111.646 38.7741 111.514 38.6201 111.42C38.4697 111.327 38.2835 111.281 38.0615 111.281C37.8252 111.281 37.6211 111.338 37.4492 111.453C37.2809 111.567 37.152 111.727 37.0625 111.931C36.9766 112.135 36.9336 112.366 36.9336 112.624H35.3813C35.3813 112.158 35.4924 111.732 35.7144 111.345C35.9364 110.955 36.2497 110.645 36.6543 110.416C37.0589 110.183 37.5387 110.067 38.0938 110.067C38.6416 110.067 39.1035 110.156 39.4795 110.335C39.859 110.511 40.1455 110.765 40.3389 111.098C40.5358 111.428 40.6343 111.821 40.6343 112.28C40.6343 112.538 40.5931 112.79 40.5107 113.037C40.4284 113.281 40.3102 113.524 40.1562 113.768C40.0059 114.007 39.8232 114.251 39.6084 114.498C39.3936 114.745 39.1554 115.001 38.894 115.266L37.5352 116.792H40.8867ZM44.2257 114.439L42.9904 114.144L43.4362 110.18H47.8298V111.431H44.7091L44.5158 113.166C44.6196 113.105 44.7772 113.041 44.9884 112.973C45.1997 112.901 45.436 112.865 45.6974 112.865C46.077 112.865 46.4136 112.924 46.7072 113.042C47.0008 113.161 47.2497 113.333 47.4538 113.558C47.6615 113.784 47.819 114.059 47.9264 114.385C48.0339 114.711 48.0876 115.08 48.0876 115.492C48.0876 115.839 48.0339 116.17 47.9264 116.485C47.819 116.797 47.6561 117.076 47.4377 117.323C47.2192 117.567 46.9453 117.758 46.6159 117.898C46.2865 118.038 45.8962 118.107 45.445 118.107C45.1084 118.107 44.7826 118.057 44.4674 117.957C44.1559 117.857 43.8748 117.708 43.6242 117.511C43.3771 117.314 43.1784 117.076 43.028 116.797C42.8812 116.514 42.8042 116.192 42.797 115.83H44.3332C44.3547 116.052 44.4119 116.244 44.505 116.405C44.6017 116.562 44.7288 116.684 44.8864 116.77C45.0439 116.856 45.2284 116.899 45.4396 116.899C45.6366 116.899 45.8049 116.861 45.9445 116.786C46.0841 116.711 46.1969 116.607 46.2829 116.475C46.3688 116.339 46.4315 116.181 46.4709 116.002C46.5138 115.819 46.5353 115.622 46.5353 115.411C46.5353 115.2 46.5103 115.008 46.4601 114.836C46.41 114.665 46.333 114.516 46.2292 114.391C46.1253 114.265 45.9928 114.169 45.8317 114.101C45.6742 114.033 45.4897 113.999 45.2785 113.999C44.992 113.999 44.77 114.043 44.6125 114.133C44.4585 114.222 44.3296 114.324 44.2257 114.439Z" fill="#E6E6E6"/>
<path d="M73.8867 116.792V118H68.5371V116.969L71.0669 114.256C71.3211 113.973 71.5216 113.725 71.6685 113.51C71.8153 113.291 71.9209 113.096 71.9854 112.924C72.0534 112.749 72.0874 112.582 72.0874 112.425C72.0874 112.188 72.048 111.986 71.9692 111.818C71.8905 111.646 71.7741 111.514 71.6201 111.42C71.4697 111.327 71.2835 111.281 71.0615 111.281C70.8252 111.281 70.6211 111.338 70.4492 111.453C70.2809 111.567 70.152 111.727 70.0625 111.931C69.9766 112.135 69.9336 112.366 69.9336 112.624H68.3813C68.3813 112.158 68.4924 111.732 68.7144 111.345C68.9364 110.955 69.2497 110.645 69.6543 110.416C70.0589 110.183 70.5387 110.067 71.0938 110.067C71.6416 110.067 72.1035 110.156 72.4795 110.335C72.859 110.511 73.1455 110.765 73.3389 111.098C73.5358 111.428 73.6343 111.821 73.6343 112.28C73.6343 112.538 73.5931 112.79 73.5107 113.037C73.4284 113.281 73.3102 113.524 73.1562 113.768C73.0059 114.007 72.8232 114.251 72.6084 114.498C72.3936 114.745 72.1554 115.001 71.894 115.266L70.5352 116.792H73.8867ZM79.7609 110.099H79.9865V111.334H79.8952C79.487 111.334 79.1235 111.395 78.8049 111.517C78.4862 111.639 78.2158 111.812 77.9938 112.038C77.7754 112.26 77.6071 112.529 77.4889 112.844C77.3743 113.159 77.3171 113.512 77.3171 113.902V115.202C77.3171 115.481 77.3439 115.728 77.3976 115.943C77.4549 116.154 77.5355 116.331 77.6393 116.475C77.7467 116.614 77.8721 116.72 78.0153 116.792C78.1585 116.86 78.3197 116.894 78.4987 116.894C78.667 116.894 78.8192 116.858 78.9552 116.786C79.0949 116.715 79.2131 116.614 79.3097 116.485C79.41 116.353 79.4852 116.199 79.5353 116.023C79.589 115.844 79.6159 115.649 79.6159 115.438C79.6159 115.227 79.589 115.032 79.5353 114.853C79.4852 114.674 79.41 114.52 79.3097 114.391C79.2095 114.258 79.0877 114.156 78.9445 114.084C78.8013 114.013 78.6401 113.977 78.4611 113.977C78.2176 113.977 78.0028 114.034 77.8166 114.149C77.634 114.26 77.4907 114.403 77.3869 114.579C77.283 114.754 77.2275 114.938 77.2204 115.132L76.7531 114.831C76.7638 114.555 76.8211 114.294 76.925 114.047C77.0324 113.8 77.1792 113.581 77.3654 113.392C77.5552 113.198 77.7826 113.048 78.0475 112.94C78.3125 112.829 78.6115 112.774 78.9445 112.774C79.3097 112.774 79.6302 112.844 79.9059 112.983C80.1852 113.123 80.418 113.315 80.6042 113.558C80.7904 113.802 80.93 114.083 81.0231 114.401C81.1162 114.72 81.1628 115.06 81.1628 115.422C81.1628 115.801 81.1001 116.154 80.9748 116.48C80.853 116.806 80.6758 117.09 80.443 117.334C80.2139 117.577 79.9382 117.767 79.6159 117.903C79.2936 118.039 78.932 118.107 78.5309 118.107C78.1156 118.107 77.7378 118.032 77.3976 117.882C77.061 117.728 76.771 117.513 76.5275 117.237C76.284 116.962 76.096 116.634 75.9635 116.254C75.8346 115.875 75.7702 115.459 75.7702 115.008V114.407C75.7702 113.777 75.8615 113.2 76.0441 112.677C76.2303 112.151 76.4971 111.696 76.8444 111.313C77.1917 110.926 77.6107 110.627 78.1012 110.416C78.5918 110.205 79.145 110.099 79.7609 110.099Z" fill="#E6E6E6"/>
<path d="M104.887 116.792V118H99.5371V116.969L102.067 114.256C102.321 113.973 102.522 113.725 102.668 113.51C102.815 113.291 102.921 113.096 102.985 112.924C103.053 112.749 103.087 112.582 103.087 112.425C103.087 112.188 103.048 111.986 102.969 111.818C102.89 111.646 102.774 111.514 102.62 111.42C102.47 111.327 102.284 111.281 102.062 111.281C101.825 111.281 101.621 111.338 101.449 111.453C101.281 111.567 101.152 111.727 101.062 111.931C100.977 112.135 100.934 112.366 100.934 112.624H99.3813C99.3813 112.158 99.4924 111.732 99.7144 111.345C99.9364 110.955 100.25 110.645 100.654 110.416C101.059 110.183 101.539 110.067 102.094 110.067C102.642 110.067 103.104 110.156 103.479 110.335C103.859 110.511 104.146 110.765 104.339 111.098C104.536 111.428 104.634 111.821 104.634 112.28C104.634 112.538 104.593 112.79 104.511 113.037C104.428 113.281 104.31 113.524 104.156 113.768C104.006 114.007 103.823 114.251 103.608 114.498C103.394 114.745 103.155 115.001 102.894 115.266L101.535 116.792H104.887ZM112.082 110.18V111.012L109.058 118H107.425L110.449 111.388H106.555V110.18H112.082Z" fill="#E6E6E6"/>
<path d="M132.887 116.792V118H127.537V116.969L130.067 114.256C130.321 113.973 130.522 113.725 130.668 113.51C130.815 113.291 130.921 113.096 130.985 112.924C131.053 112.749 131.087 112.582 131.087 112.425C131.087 112.188 131.048 111.986 130.969 111.818C130.89 111.646 130.774 111.514 130.62 111.42C130.47 111.327 130.284 111.281 130.062 111.281C129.825 111.281 129.621 111.338 129.449 111.453C129.281 111.567 129.152 111.727 129.062 111.931C128.977 112.135 128.934 112.366 128.934 112.624H127.381C127.381 112.158 127.492 111.732 127.714 111.345C127.936 110.955 128.25 110.645 128.654 110.416C129.059 110.183 129.539 110.067 130.094 110.067C130.642 110.067 131.104 110.156 131.479 110.335C131.859 110.511 132.146 110.765 132.339 111.098C132.536 111.428 132.634 111.821 132.634 112.28C132.634 112.538 132.593 112.79 132.511 113.037C132.428 113.281 132.31 113.524 132.156 113.768C132.006 114.007 131.823 114.251 131.608 114.498C131.394 114.745 131.155 115.001 130.894 115.266L129.535 116.792H132.887ZM140.039 115.857C140.039 116.347 139.925 116.761 139.695 117.098C139.466 117.431 139.151 117.683 138.75 117.855C138.353 118.023 137.902 118.107 137.397 118.107C136.892 118.107 136.439 118.023 136.038 117.855C135.637 117.683 135.32 117.431 135.087 117.098C134.854 116.761 134.738 116.347 134.738 115.857C134.738 115.528 134.804 115.23 134.937 114.965C135.069 114.697 135.254 114.468 135.49 114.278C135.73 114.084 136.011 113.938 136.333 113.837C136.655 113.734 137.006 113.682 137.386 113.682C137.894 113.682 138.349 113.771 138.75 113.95C139.151 114.129 139.466 114.382 139.695 114.708C139.925 115.033 140.039 115.417 140.039 115.857ZM138.482 115.755C138.482 115.515 138.435 115.309 138.342 115.137C138.252 114.962 138.125 114.827 137.961 114.734C137.796 114.641 137.604 114.595 137.386 114.595C137.167 114.595 136.976 114.641 136.811 114.734C136.646 114.827 136.518 114.962 136.424 115.137C136.335 115.309 136.29 115.515 136.29 115.755C136.29 115.991 136.335 116.195 136.424 116.367C136.518 116.539 136.646 116.672 136.811 116.765C136.979 116.854 137.175 116.899 137.397 116.899C137.619 116.899 137.81 116.854 137.971 116.765C138.136 116.672 138.261 116.539 138.347 116.367C138.437 116.195 138.482 115.991 138.482 115.755ZM139.873 112.253C139.873 112.65 139.767 113.003 139.556 113.311C139.345 113.615 139.051 113.854 138.675 114.025C138.303 114.197 137.876 114.283 137.397 114.283C136.913 114.283 136.484 114.197 136.108 114.025C135.732 113.854 135.438 113.615 135.227 113.311C135.015 113.003 134.91 112.65 134.91 112.253C134.91 111.78 135.015 111.383 135.227 111.061C135.442 110.735 135.735 110.488 136.108 110.319C136.484 110.151 136.91 110.067 137.386 110.067C137.869 110.067 138.297 110.151 138.67 110.319C139.046 110.488 139.339 110.735 139.55 111.061C139.765 111.383 139.873 111.78 139.873 112.253ZM138.326 112.323C138.326 112.111 138.288 111.929 138.213 111.775C138.138 111.617 138.03 111.496 137.891 111.41C137.755 111.324 137.586 111.281 137.386 111.281C137.193 111.281 137.026 111.322 136.886 111.404C136.75 111.487 136.645 111.607 136.569 111.764C136.498 111.918 136.462 112.104 136.462 112.323C136.462 112.534 136.498 112.72 136.569 112.881C136.645 113.039 136.752 113.162 136.892 113.252C137.031 113.341 137.2 113.386 137.397 113.386C137.594 113.386 137.76 113.341 137.896 113.252C138.036 113.162 138.141 113.039 138.213 112.881C138.288 112.72 138.326 112.534 138.326 112.323Z" fill="#E6E6E6"/>
<path d="M170.308 110.164V118H168.761V111.947L166.902 112.538V111.318L170.141 110.164H170.308Z" fill="#E6E6E6"/>
<path d="M201.887 116.792V118H196.537V116.969L199.067 114.256C199.321 113.973 199.522 113.725 199.668 113.51C199.815 113.291 199.921 113.096 199.985 112.924C200.053 112.749 200.087 112.582 200.087 112.425C200.087 112.188 200.048 111.986 199.969 111.818C199.89 111.646 199.774 111.514 199.62 111.42C199.47 111.327 199.284 111.281 199.062 111.281C198.825 111.281 198.621 111.338 198.449 111.453C198.281 111.567 198.152 111.727 198.062 111.931C197.977 112.135 197.934 112.366 197.934 112.624H196.381C196.381 112.158 196.492 111.732 196.714 111.345C196.936 110.955 197.25 110.645 197.654 110.416C198.059 110.183 198.539 110.067 199.094 110.067C199.642 110.067 200.104 110.156 200.479 110.335C200.859 110.511 201.146 110.765 201.339 111.098C201.536 111.428 201.634 111.821 201.634 112.28C201.634 112.538 201.593 112.79 201.511 113.037C201.428 113.281 201.31 113.524 201.156 113.768C201.006 114.007 200.823 114.251 200.608 114.498C200.394 114.745 200.155 115.001 199.894 115.266L198.535 116.792H201.887Z" fill="#999999"/>
<path d="M226.122 113.418H226.949C227.214 113.418 227.432 113.374 227.604 113.284C227.776 113.191 227.903 113.062 227.985 112.897C228.071 112.729 228.114 112.534 228.114 112.312C228.114 112.111 228.075 111.934 227.996 111.78C227.921 111.623 227.805 111.501 227.647 111.415C227.489 111.326 227.291 111.281 227.051 111.281C226.861 111.281 226.686 111.318 226.524 111.394C226.363 111.469 226.234 111.574 226.138 111.71C226.041 111.847 225.993 112.011 225.993 112.205H224.44C224.44 111.775 224.555 111.401 224.784 111.082C225.017 110.763 225.328 110.514 225.719 110.335C226.109 110.156 226.539 110.067 227.008 110.067C227.538 110.067 228.001 110.153 228.399 110.325C228.796 110.493 229.106 110.742 229.328 111.071C229.55 111.401 229.661 111.809 229.661 112.296C229.661 112.543 229.604 112.783 229.489 113.016C229.375 113.245 229.21 113.452 228.995 113.639C228.784 113.821 228.526 113.968 228.222 114.079C227.917 114.187 227.575 114.24 227.196 114.24H226.122V113.418ZM226.122 114.595V113.794H227.196C227.622 113.794 227.996 113.843 228.318 113.939C228.641 114.036 228.911 114.176 229.129 114.358C229.348 114.537 229.513 114.75 229.624 114.998C229.735 115.241 229.79 115.511 229.79 115.809C229.79 116.174 229.72 116.5 229.581 116.786C229.441 117.069 229.244 117.309 228.99 117.506C228.739 117.703 228.445 117.853 228.109 117.957C227.772 118.057 227.405 118.107 227.008 118.107C226.678 118.107 226.354 118.063 226.036 117.973C225.721 117.88 225.434 117.742 225.176 117.56C224.922 117.373 224.718 117.141 224.564 116.861C224.414 116.578 224.338 116.244 224.338 115.857H225.891C225.891 116.057 225.941 116.236 226.041 116.394C226.141 116.552 226.279 116.675 226.455 116.765C226.634 116.854 226.832 116.899 227.051 116.899C227.298 116.899 227.509 116.854 227.685 116.765C227.864 116.672 228 116.543 228.093 116.378C228.189 116.21 228.238 116.014 228.238 115.792C228.238 115.506 228.186 115.277 228.082 115.105C227.978 114.93 227.83 114.801 227.636 114.718C227.443 114.636 227.214 114.595 226.949 114.595H226.122Z" fill="#999999"/>
<path d="M45.0156 154.078V155.292H39.3813L39.3062 154.352L42.5664 149.18H43.7964L42.4644 151.409L40.8423 154.078H45.0156ZM44.1294 149.18V157H42.5825V149.18H44.1294Z" fill="#999999"/>
<path d="M73.9927 153.439L72.7573 153.144L73.2031 149.18H77.5967V150.431H74.4761L74.2827 152.166C74.3866 152.105 74.5441 152.041 74.7554 151.973C74.9666 151.901 75.203 151.865 75.4644 151.865C75.8439 151.865 76.1805 151.924 76.4741 152.042C76.7677 152.161 77.0166 152.333 77.2207 152.558C77.4284 152.784 77.5859 153.059 77.6934 153.385C77.8008 153.711 77.8545 154.08 77.8545 154.492C77.8545 154.839 77.8008 155.17 77.6934 155.485C77.5859 155.797 77.423 156.076 77.2046 156.323C76.9862 156.567 76.7122 156.758 76.3828 156.898C76.0534 157.038 75.6631 157.107 75.2119 157.107C74.8753 157.107 74.5495 157.057 74.2344 156.957C73.9229 156.857 73.6418 156.708 73.3911 156.511C73.144 156.314 72.9453 156.076 72.7949 155.797C72.6481 155.514 72.5711 155.192 72.564 154.83H74.1001C74.1216 155.052 74.1789 155.244 74.272 155.405C74.3687 155.562 74.4958 155.684 74.6533 155.77C74.8109 155.856 74.9953 155.899 75.2065 155.899C75.4035 155.899 75.5718 155.861 75.7114 155.786C75.8511 155.711 75.9639 155.607 76.0498 155.475C76.1357 155.339 76.1984 155.181 76.2378 155.002C76.2808 154.819 76.3022 154.622 76.3022 154.411C76.3022 154.2 76.2772 154.008 76.2271 153.836C76.1769 153.665 76.0999 153.516 75.9961 153.391C75.8923 153.265 75.7598 153.169 75.5986 153.101C75.4411 153.033 75.2567 152.999 75.0454 152.999C74.759 152.999 74.5369 153.043 74.3794 153.133C74.2254 153.222 74.0965 153.324 73.9927 153.439Z" fill="#999999"/>
<path d="M107.528 149.099H107.753V150.334H107.662C107.254 150.334 106.89 150.395 106.572 150.517C106.253 150.639 105.983 150.812 105.761 151.038C105.542 151.26 105.374 151.529 105.256 151.844C105.141 152.159 105.084 152.512 105.084 152.902V154.202C105.084 154.481 105.111 154.728 105.165 154.943C105.222 155.154 105.302 155.331 105.406 155.475C105.514 155.614 105.639 155.72 105.782 155.792C105.925 155.86 106.087 155.894 106.266 155.894C106.434 155.894 106.586 155.858 106.722 155.786C106.862 155.715 106.98 155.614 107.077 155.485C107.177 155.353 107.252 155.199 107.302 155.023C107.356 154.844 107.383 154.649 107.383 154.438C107.383 154.227 107.356 154.032 107.302 153.853C107.252 153.674 107.177 153.52 107.077 153.391C106.976 153.258 106.855 153.156 106.711 153.084C106.568 153.013 106.407 152.977 106.228 152.977C105.985 152.977 105.77 153.034 105.583 153.149C105.401 153.26 105.258 153.403 105.154 153.579C105.05 153.754 104.994 153.938 104.987 154.132L104.52 153.831C104.531 153.555 104.588 153.294 104.692 153.047C104.799 152.8 104.946 152.581 105.132 152.392C105.322 152.198 105.549 152.048 105.814 151.94C106.079 151.829 106.378 151.774 106.711 151.774C107.077 151.774 107.397 151.844 107.673 151.983C107.952 152.123 108.185 152.315 108.371 152.558C108.557 152.802 108.697 153.083 108.79 153.401C108.883 153.72 108.93 154.06 108.93 154.422C108.93 154.801 108.867 155.154 108.742 155.48C108.62 155.806 108.443 156.09 108.21 156.334C107.981 156.577 107.705 156.767 107.383 156.903C107.061 157.039 106.699 157.107 106.298 157.107C105.882 157.107 105.505 157.032 105.165 156.882C104.828 156.728 104.538 156.513 104.294 156.237C104.051 155.962 103.863 155.634 103.73 155.254C103.602 154.875 103.537 154.459 103.537 154.008V153.407C103.537 152.777 103.628 152.2 103.811 151.677C103.997 151.151 104.264 150.696 104.611 150.313C104.959 149.926 105.378 149.627 105.868 149.416C106.359 149.205 106.912 149.099 107.528 149.099Z" fill="#999999"/>
<path d="M136.849 149.18V150.012L133.825 157H132.192L135.216 150.388H131.322V149.18H136.849Z" fill="#999999"/>
<rect x="185" y="100" width="28" height="28" rx="4" fill="#4DA1FF" fill-opacity="0.1"/>
<rect x="202" y="105" width="5" height="5" rx="2.5" fill="#4DA1FF"/>
<rect x="205" y="222" width="5" height="5" rx="2.5" fill="#4DA1FF"/>
<rect x="60" y="178" width="28" height="28" rx="4" fill="#F5F5F5"/>
<rect x="79" y="184" width="5" height="5" rx="2.5" fill="#FF6D4A"/>
<path d="M171.806 154.857C171.806 155.347 171.692 155.761 171.462 156.098C171.233 156.431 170.918 156.683 170.517 156.855C170.12 157.023 169.668 157.107 169.164 157.107C168.659 157.107 168.206 157.023 167.805 156.855C167.404 156.683 167.087 156.431 166.854 156.098C166.621 155.761 166.505 155.347 166.505 154.857C166.505 154.528 166.571 154.23 166.704 153.965C166.836 153.697 167.021 153.468 167.257 153.278C167.497 153.084 167.778 152.938 168.1 152.837C168.422 152.734 168.773 152.682 169.153 152.682C169.661 152.682 170.116 152.771 170.517 152.95C170.918 153.129 171.233 153.382 171.462 153.708C171.692 154.033 171.806 154.417 171.806 154.857ZM170.249 154.755C170.249 154.515 170.202 154.309 170.109 154.137C170.019 153.962 169.892 153.827 169.728 153.734C169.563 153.641 169.371 153.595 169.153 153.595C168.934 153.595 168.743 153.641 168.578 153.734C168.413 153.827 168.285 153.962 168.191 154.137C168.102 154.309 168.057 154.515 168.057 154.755C168.057 154.991 168.102 155.195 168.191 155.367C168.285 155.539 168.413 155.672 168.578 155.765C168.746 155.854 168.942 155.899 169.164 155.899C169.386 155.899 169.577 155.854 169.738 155.765C169.903 155.672 170.028 155.539 170.114 155.367C170.204 155.195 170.249 154.991 170.249 154.755ZM171.64 151.253C171.64 151.65 171.534 152.003 171.323 152.311C171.111 152.615 170.818 152.854 170.442 153.025C170.069 153.197 169.643 153.283 169.164 153.283C168.68 153.283 168.25 153.197 167.875 153.025C167.499 152.854 167.205 152.615 166.994 152.311C166.782 152.003 166.677 151.65 166.677 151.253C166.677 150.78 166.782 150.383 166.994 150.061C167.208 149.735 167.502 149.488 167.875 149.319C168.25 149.151 168.677 149.067 169.153 149.067C169.636 149.067 170.064 149.151 170.437 149.319C170.812 149.488 171.106 149.735 171.317 150.061C171.532 150.383 171.64 150.78 171.64 151.253ZM170.093 151.323C170.093 151.111 170.055 150.929 169.98 150.775C169.905 150.617 169.797 150.496 169.658 150.41C169.522 150.324 169.353 150.281 169.153 150.281C168.959 150.281 168.793 150.322 168.653 150.404C168.517 150.487 168.412 150.607 168.336 150.764C168.265 150.918 168.229 151.104 168.229 151.323C168.229 151.534 168.265 151.72 168.336 151.881C168.412 152.039 168.519 152.162 168.659 152.252C168.798 152.341 168.967 152.386 169.164 152.386C169.361 152.386 169.527 152.341 169.663 152.252C169.803 152.162 169.908 152.039 169.98 151.881C170.055 151.72 170.093 151.534 170.093 151.323Z" fill="#999999"/>
<path d="M197.633 155.824H197.735C198.165 155.824 198.533 155.772 198.841 155.668C199.153 155.561 199.409 155.407 199.609 155.206C199.81 155.006 199.958 154.76 200.055 154.47C200.152 154.177 200.2 153.844 200.2 153.471V151.989C200.2 151.706 200.172 151.457 200.114 151.242C200.061 151.027 199.982 150.85 199.878 150.71C199.778 150.567 199.66 150.46 199.523 150.388C199.391 150.317 199.244 150.281 199.083 150.281C198.911 150.281 198.759 150.324 198.626 150.41C198.494 150.492 198.381 150.605 198.288 150.748C198.199 150.891 198.129 151.056 198.079 151.242C198.032 151.425 198.009 151.616 198.009 151.817C198.009 152.017 198.032 152.209 198.079 152.392C198.125 152.571 198.195 152.73 198.288 152.87C198.381 153.006 198.498 153.115 198.637 153.197C198.777 153.276 198.942 153.315 199.131 153.315C199.314 153.315 199.477 153.281 199.62 153.213C199.767 153.142 199.89 153.049 199.991 152.934C200.095 152.819 200.173 152.692 200.227 152.553C200.284 152.413 200.313 152.272 200.313 152.128L200.823 152.408C200.823 152.658 200.77 152.905 200.662 153.149C200.555 153.392 200.404 153.614 200.211 153.815C200.021 154.012 199.801 154.169 199.55 154.288C199.3 154.406 199.031 154.465 198.745 154.465C198.379 154.465 198.055 154.399 197.772 154.266C197.49 154.13 197.25 153.944 197.053 153.708C196.859 153.468 196.713 153.188 196.612 152.87C196.512 152.551 196.462 152.205 196.462 151.833C196.462 151.453 196.523 151.097 196.645 150.764C196.77 150.431 196.947 150.138 197.176 149.883C197.409 149.629 197.687 149.43 198.009 149.287C198.335 149.14 198.696 149.067 199.094 149.067C199.491 149.067 199.853 149.144 200.179 149.298C200.505 149.452 200.784 149.67 201.017 149.953C201.249 150.232 201.428 150.567 201.554 150.958C201.683 151.348 201.747 151.781 201.747 152.257V152.794C201.747 153.303 201.692 153.776 201.581 154.212C201.473 154.649 201.31 155.045 201.092 155.399C200.877 155.75 200.608 156.051 200.286 156.302C199.967 156.552 199.597 156.744 199.174 156.876C198.752 157.009 198.279 157.075 197.756 157.075H197.633V155.824Z" fill="#999999"/>
<path d="M224.308 149.164V157H222.761V150.947L220.902 151.538V150.318L224.141 149.164H224.308ZM233.034 152.402V153.756C233.034 154.343 232.971 154.85 232.846 155.276C232.721 155.698 232.54 156.046 232.303 156.318C232.071 156.586 231.793 156.785 231.471 156.914C231.149 157.043 230.791 157.107 230.397 157.107C230.082 157.107 229.788 157.068 229.516 156.989C229.244 156.907 228.998 156.78 228.78 156.608C228.565 156.436 228.379 156.219 228.221 155.958C228.067 155.693 227.949 155.378 227.867 155.013C227.785 154.647 227.743 154.229 227.743 153.756V152.402C227.743 151.815 227.806 151.312 227.931 150.893C228.06 150.471 228.241 150.125 228.474 149.856C228.71 149.588 228.989 149.391 229.312 149.266C229.634 149.137 229.992 149.072 230.386 149.072C230.701 149.072 230.993 149.113 231.261 149.196C231.534 149.275 231.779 149.398 231.997 149.566C232.216 149.735 232.402 149.951 232.556 150.216C232.71 150.478 232.828 150.791 232.91 151.156C232.993 151.518 233.034 151.933 233.034 152.402ZM231.482 153.96V152.193C231.482 151.91 231.465 151.663 231.433 151.452C231.405 151.24 231.36 151.061 231.299 150.915C231.238 150.764 231.163 150.642 231.073 150.549C230.984 150.456 230.882 150.388 230.767 150.345C230.653 150.302 230.526 150.281 230.386 150.281C230.21 150.281 230.055 150.315 229.919 150.383C229.786 150.451 229.673 150.56 229.58 150.71C229.487 150.857 229.416 151.054 229.365 151.301C229.319 151.545 229.296 151.842 229.296 152.193V153.96C229.296 154.243 229.31 154.492 229.339 154.707C229.371 154.921 229.417 155.106 229.478 155.26C229.543 155.41 229.618 155.534 229.704 155.63C229.793 155.723 229.895 155.792 230.01 155.834C230.128 155.877 230.257 155.899 230.397 155.899C230.569 155.899 230.721 155.865 230.853 155.797C230.989 155.725 231.104 155.614 231.197 155.464C231.294 155.31 231.365 155.109 231.412 154.862C231.458 154.615 231.482 154.314 231.482 153.96Z" fill="#999999"/>
<path d="M39.3076 188.164V196H37.7607V189.947L35.9023 190.538V189.318L39.1411 188.164H39.3076ZM46.5407 188.164V196H44.9938V189.947L43.1354 190.538V189.318L46.3742 188.164H46.5407Z" fill="#999999"/>
<path d="M72.3076 188.164V196H70.7607V189.947L68.9023 190.538V189.318L72.1411 188.164H72.3076ZM81.1198 194.792V196H75.7702V194.969L78.3 192.256C78.5542 191.973 78.7547 191.725 78.9015 191.51C79.0483 191.291 79.154 191.096 79.2184 190.924C79.2865 190.749 79.3205 190.582 79.3205 190.425C79.3205 190.188 79.2811 189.986 79.2023 189.818C79.1235 189.646 79.0072 189.514 78.8532 189.42C78.7028 189.327 78.5166 189.281 78.2946 189.281C78.0583 189.281 77.8542 189.338 77.6823 189.453C77.514 189.567 77.3851 189.727 77.2956 189.931C77.2096 190.135 77.1667 190.366 77.1667 190.624H75.6144C75.6144 190.158 75.7254 189.732 75.9474 189.345C76.1694 188.955 76.4827 188.645 76.8874 188.416C77.292 188.183 77.7718 188.067 78.3268 188.067C78.8747 188.067 79.3366 188.156 79.7126 188.335C80.0921 188.511 80.3786 188.765 80.5719 189.098C80.7689 189.428 80.8674 189.821 80.8674 190.28C80.8674 190.538 80.8262 190.79 80.7438 191.037C80.6615 191.281 80.5433 191.524 80.3893 191.768C80.2389 192.007 80.0563 192.251 79.8415 192.498C79.6266 192.745 79.3885 193.001 79.1271 193.266L77.7682 194.792H81.1198Z" fill="#999999"/>
<path d="M103.308 188.164V196H101.761V189.947L99.9023 190.538V189.318L103.141 188.164H103.308ZM108.355 191.418H109.182C109.447 191.418 109.665 191.374 109.837 191.284C110.009 191.191 110.136 191.062 110.218 190.897C110.304 190.729 110.347 190.534 110.347 190.312C110.347 190.111 110.308 189.934 110.229 189.78C110.154 189.623 110.038 189.501 109.88 189.415C109.722 189.326 109.524 189.281 109.284 189.281C109.094 189.281 108.919 189.318 108.757 189.394C108.596 189.469 108.467 189.574 108.371 189.71C108.274 189.847 108.226 190.011 108.226 190.205H106.674C106.674 189.775 106.788 189.401 107.017 189.082C107.25 188.763 107.562 188.514 107.952 188.335C108.342 188.156 108.772 188.067 109.241 188.067C109.771 188.067 110.235 188.153 110.632 188.325C111.029 188.493 111.339 188.742 111.561 189.071C111.783 189.401 111.894 189.809 111.894 190.296C111.894 190.543 111.837 190.783 111.722 191.016C111.608 191.245 111.443 191.452 111.228 191.639C111.017 191.821 110.759 191.968 110.455 192.079C110.15 192.187 109.808 192.24 109.429 192.24H108.355V191.418ZM108.355 192.595V191.794H109.429C109.855 191.794 110.229 191.843 110.551 191.939C110.874 192.036 111.144 192.176 111.362 192.358C111.581 192.537 111.746 192.75 111.857 192.998C111.968 193.241 112.023 193.511 112.023 193.809C112.023 194.174 111.953 194.5 111.814 194.786C111.674 195.069 111.477 195.309 111.223 195.506C110.972 195.703 110.679 195.853 110.342 195.957C110.005 196.057 109.638 196.107 109.241 196.107C108.911 196.107 108.587 196.063 108.269 195.973C107.954 195.88 107.667 195.742 107.409 195.56C107.155 195.373 106.951 195.141 106.797 194.861C106.647 194.578 106.571 194.244 106.571 193.857H108.124C108.124 194.057 108.174 194.236 108.274 194.394C108.374 194.552 108.512 194.675 108.688 194.765C108.867 194.854 109.065 194.899 109.284 194.899C109.531 194.899 109.742 194.854 109.918 194.765C110.097 194.672 110.233 194.543 110.326 194.378C110.423 194.21 110.471 194.014 110.471 193.792C110.471 193.506 110.419 193.277 110.315 193.105C110.211 192.93 110.063 192.801 109.869 192.718C109.676 192.636 109.447 192.595 109.182 192.595H108.355Z" fill="#999999"/>
<path d="M131.308 188.164V196H129.761V189.947L127.902 190.538V189.318L131.141 188.164H131.308ZM140.249 193.078V194.292H134.614L134.539 193.352L137.799 188.18H139.029L137.697 190.409L136.075 193.078H140.249ZM139.362 188.18V196H137.816V188.18H139.362Z" fill="#999999"/>
<path d="M166.308 188.164V196H164.761V189.947L162.902 190.538V189.318L166.141 188.164H166.308ZM171.226 192.439L169.99 192.144L170.436 188.18H174.83V189.431H171.709L171.516 191.166C171.62 191.105 171.777 191.041 171.988 190.973C172.2 190.901 172.436 190.865 172.697 190.865C173.077 190.865 173.414 190.924 173.707 191.042C174.001 191.161 174.25 191.333 174.454 191.558C174.661 191.784 174.819 192.059 174.926 192.385C175.034 192.711 175.088 193.08 175.088 193.492C175.088 193.839 175.034 194.17 174.926 194.485C174.819 194.797 174.656 195.076 174.438 195.323C174.219 195.567 173.945 195.758 173.616 195.898C173.286 196.038 172.896 196.107 172.445 196.107C172.108 196.107 171.783 196.057 171.467 195.957C171.156 195.857 170.875 195.708 170.624 195.511C170.377 195.314 170.178 195.076 170.028 194.797C169.881 194.514 169.804 194.192 169.797 193.83H171.333C171.355 194.052 171.412 194.244 171.505 194.405C171.602 194.562 171.729 194.684 171.886 194.77C172.044 194.856 172.228 194.899 172.44 194.899C172.637 194.899 172.805 194.861 172.944 194.786C173.084 194.711 173.197 194.607 173.283 194.475C173.369 194.339 173.431 194.181 173.471 194.002C173.514 193.819 173.535 193.622 173.535 193.411C173.535 193.2 173.51 193.008 173.46 192.836C173.41 192.665 173.333 192.516 173.229 192.391C173.125 192.265 172.993 192.169 172.832 192.101C172.674 192.033 172.49 191.999 172.278 191.999C171.992 191.999 171.77 192.043 171.612 192.133C171.458 192.222 171.33 192.324 171.226 192.439Z" fill="#999999"/>
<path d="M196.308 188.164V196H194.761V189.947L192.902 190.538V189.318L196.141 188.164H196.308ZM203.761 188.099H203.986V189.334H203.895C203.487 189.334 203.124 189.395 202.805 189.517C202.486 189.639 202.216 189.812 201.994 190.038C201.775 190.26 201.607 190.529 201.489 190.844C201.374 191.159 201.317 191.512 201.317 191.902V193.202C201.317 193.481 201.344 193.728 201.398 193.943C201.455 194.154 201.535 194.331 201.639 194.475C201.747 194.614 201.872 194.72 202.015 194.792C202.159 194.86 202.32 194.894 202.499 194.894C202.667 194.894 202.819 194.858 202.955 194.786C203.095 194.715 203.213 194.614 203.31 194.485C203.41 194.353 203.485 194.199 203.535 194.023C203.589 193.844 203.616 193.649 203.616 193.438C203.616 193.227 203.589 193.032 203.535 192.853C203.485 192.674 203.41 192.52 203.31 192.391C203.209 192.258 203.088 192.156 202.944 192.084C202.801 192.013 202.64 191.977 202.461 191.977C202.218 191.977 202.003 192.034 201.817 192.149C201.634 192.26 201.491 192.403 201.387 192.579C201.283 192.754 201.228 192.938 201.22 193.132L200.753 192.831C200.764 192.555 200.821 192.294 200.925 192.047C201.032 191.8 201.179 191.581 201.365 191.392C201.555 191.198 201.783 191.048 202.048 190.94C202.312 190.829 202.611 190.774 202.944 190.774C203.31 190.774 203.63 190.844 203.906 190.983C204.185 191.123 204.418 191.315 204.604 191.558C204.79 191.802 204.93 192.083 205.023 192.401C205.116 192.72 205.163 193.06 205.163 193.422C205.163 193.801 205.1 194.154 204.975 194.48C204.853 194.806 204.676 195.09 204.443 195.334C204.214 195.577 203.938 195.767 203.616 195.903C203.294 196.039 202.932 196.107 202.531 196.107C202.116 196.107 201.738 196.032 201.398 195.882C201.061 195.728 200.771 195.513 200.528 195.237C200.284 194.962 200.096 194.634 199.964 194.254C199.835 193.875 199.77 193.459 199.77 193.008V192.407C199.77 191.777 199.861 191.2 200.044 190.677C200.23 190.151 200.497 189.696 200.844 189.313C201.192 188.926 201.611 188.627 202.101 188.416C202.592 188.205 203.145 188.099 203.761 188.099Z" fill="#999999"/>
<path d="M224.308 188.164V196H222.761V189.947L220.902 190.538V189.318L224.141 188.164H224.308ZM233.082 188.18V189.012L230.058 196H228.425L231.449 189.388H227.555V188.18H233.082Z" fill="#999999"/>
<path d="M39.3076 227.164V235H37.7607V228.947L35.9023 229.538V228.318L39.1411 227.164H39.3076ZM48.0392 232.857C48.0392 233.347 47.9246 233.761 47.6955 234.098C47.4663 234.431 47.1512 234.683 46.7502 234.855C46.3527 235.023 45.9015 235.107 45.3966 235.107C44.8918 235.107 44.4388 235.023 44.0378 234.855C43.6367 234.683 43.3198 234.431 43.0871 234.098C42.8543 233.761 42.738 233.347 42.738 232.857C42.738 232.528 42.8042 232.23 42.9367 231.965C43.0692 231.697 43.2536 231.468 43.4899 231.278C43.7298 231.084 44.0109 230.938 44.3332 230.837C44.6554 230.734 45.0063 230.682 45.3859 230.682C45.8944 230.682 46.3491 230.771 46.7502 230.95C47.1512 231.129 47.4663 231.382 47.6955 231.708C47.9246 232.033 48.0392 232.417 48.0392 232.857ZM46.4816 232.755C46.4816 232.515 46.4351 232.309 46.342 232.137C46.2524 231.962 46.1253 231.827 45.9606 231.734C45.7959 231.641 45.6043 231.595 45.3859 231.595C45.1675 231.595 44.9759 231.641 44.8112 231.734C44.6465 231.827 44.5176 231.962 44.4245 232.137C44.335 232.309 44.2902 232.515 44.2902 232.755C44.2902 232.991 44.335 233.195 44.4245 233.367C44.5176 233.539 44.6465 233.672 44.8112 233.765C44.9795 233.854 45.1746 233.899 45.3966 233.899C45.6187 233.899 45.8102 233.854 45.9714 233.765C46.1361 233.672 46.2614 233.539 46.3473 233.367C46.4368 233.195 46.4816 232.991 46.4816 232.755ZM47.8727 229.253C47.8727 229.65 47.7671 230.003 47.5558 230.311C47.3446 230.615 47.0509 230.854 46.675 231.025C46.3026 231.197 45.8765 231.283 45.3966 231.283C44.9132 231.283 44.4836 231.197 44.1076 231.025C43.7316 230.854 43.438 230.615 43.2267 230.311C43.0155 230.003 42.9098 229.65 42.9098 229.253C42.9098 228.78 43.0155 228.383 43.2267 228.061C43.4416 227.735 43.7352 227.488 44.1076 227.319C44.4836 227.151 44.9097 227.067 45.3859 227.067C45.8693 227.067 46.2972 227.151 46.6696 227.319C47.0456 227.488 47.3392 227.735 47.5505 228.061C47.7653 228.383 47.8727 228.78 47.8727 229.253ZM46.3258 229.323C46.3258 229.111 46.2882 228.929 46.2131 228.775C46.1379 228.617 46.0304 228.496 45.8908 228.41C45.7547 228.324 45.5864 228.281 45.3859 228.281C45.1925 228.281 45.026 228.322 44.8864 228.404C44.7503 228.487 44.6447 228.607 44.5695 228.764C44.4979 228.918 44.4621 229.104 44.4621 229.323C44.4621 229.534 44.4979 229.72 44.5695 229.881C44.6447 230.039 44.7521 230.162 44.8918 230.252C45.0314 230.341 45.1997 230.386 45.3966 230.386C45.5936 230.386 45.7601 230.341 45.8962 230.252C46.0358 230.162 46.1414 230.039 46.2131 229.881C46.2882 229.72 46.3258 229.534 46.3258 229.323Z" fill="#999999"/>
<path d="M72.3076 227.164V235H70.7607V228.947L68.9023 229.538V228.318L72.1411 227.164H72.3076ZM76.8659 233.824H76.9679C77.3976 233.824 77.7664 233.772 78.0744 233.668C78.3859 233.561 78.6419 233.407 78.8424 233.206C79.043 233.006 79.1916 232.76 79.2882 232.47C79.3849 232.177 79.4333 231.844 79.4333 231.471V229.989C79.4333 229.706 79.4046 229.457 79.3473 229.242C79.2936 229.027 79.2148 228.85 79.111 228.71C79.0107 228.567 78.8926 228.46 78.7565 228.388C78.624 228.317 78.4772 228.281 78.3161 228.281C78.1442 228.281 77.992 228.324 77.8595 228.41C77.7271 228.492 77.6143 228.605 77.5212 228.748C77.4316 228.891 77.3618 229.056 77.3117 229.242C77.2651 229.425 77.2419 229.616 77.2419 229.817C77.2419 230.017 77.2651 230.209 77.3117 230.392C77.3582 230.571 77.4281 230.73 77.5212 230.87C77.6143 231.006 77.7306 231.115 77.8703 231.197C78.0099 231.276 78.1746 231.315 78.3644 231.315C78.547 231.315 78.71 231.281 78.8532 231.213C79 231.142 79.1235 231.049 79.2238 230.934C79.3276 230.819 79.4064 230.692 79.4601 230.553C79.5174 230.413 79.5461 230.272 79.5461 230.128L80.0563 230.408C80.0563 230.658 80.0026 230.905 79.8952 231.149C79.7878 231.392 79.6374 231.614 79.444 231.815C79.2542 232.012 79.034 232.169 78.7834 232.288C78.5327 232.406 78.2642 232.465 77.9777 232.465C77.6125 232.465 77.2884 232.399 77.0055 232.266C76.7227 232.13 76.4827 231.944 76.2858 231.708C76.0924 231.468 75.9456 231.188 75.8454 230.87C75.7451 230.551 75.695 230.205 75.695 229.833C75.695 229.453 75.7559 229.097 75.8776 228.764C76.0029 228.431 76.1802 228.138 76.4093 227.883C76.6421 227.629 76.9196 227.43 77.2419 227.287C77.5677 227.14 77.9294 227.067 78.3268 227.067C78.7243 227.067 79.0859 227.144 79.4118 227.298C79.7376 227.452 80.0169 227.67 80.2497 227.953C80.4824 228.232 80.6615 228.567 80.7868 228.958C80.9157 229.348 80.9801 229.781 80.9801 230.257V230.794C80.9801 231.303 80.9246 231.776 80.8136 232.212C80.7062 232.649 80.5433 233.045 80.3249 233.399C80.11 233.75 79.8415 234.051 79.5192 234.302C79.2005 234.552 78.8299 234.744 78.4074 234.876C77.9849 235.009 77.5122 235.075 76.9894 235.075H76.8659V233.824Z" fill="#999999"/>
<path d="M104.887 233.792V235H99.5371V233.969L102.067 231.256C102.321 230.973 102.522 230.725 102.668 230.51C102.815 230.291 102.921 230.096 102.985 229.924C103.053 229.749 103.087 229.582 103.087 229.425C103.087 229.188 103.048 228.986 102.969 228.818C102.89 228.646 102.774 228.514 102.62 228.42C102.47 228.327 102.284 228.281 102.062 228.281C101.825 228.281 101.621 228.338 101.449 228.453C101.281 228.567 101.152 228.727 101.062 228.931C100.977 229.135 100.934 229.366 100.934 229.624H99.3813C99.3813 229.158 99.4924 228.732 99.7144 228.345C99.9364 227.955 100.25 227.645 100.654 227.416C101.059 227.183 101.539 227.067 102.094 227.067C102.642 227.067 103.104 227.156 103.479 227.335C103.859 227.511 104.146 227.765 104.339 228.098C104.536 228.428 104.634 228.821 104.634 229.28C104.634 229.538 104.593 229.79 104.511 230.037C104.428 230.281 104.31 230.524 104.156 230.768C104.006 231.007 103.823 231.251 103.608 231.498C103.394 231.745 103.155 232.001 102.894 232.266L101.535 233.792H104.887ZM112.034 230.402V231.756C112.034 232.343 111.971 232.85 111.846 233.276C111.721 233.698 111.54 234.046 111.303 234.318C111.071 234.586 110.793 234.785 110.471 234.914C110.149 235.043 109.791 235.107 109.397 235.107C109.082 235.107 108.788 235.068 108.516 234.989C108.244 234.907 107.998 234.78 107.78 234.608C107.565 234.436 107.379 234.219 107.221 233.958C107.067 233.693 106.949 233.378 106.867 233.013C106.785 232.647 106.743 232.229 106.743 231.756V230.402C106.743 229.815 106.806 229.312 106.931 228.893C107.06 228.471 107.241 228.125 107.474 227.856C107.71 227.588 107.989 227.391 108.312 227.266C108.634 227.137 108.992 227.072 109.386 227.072C109.701 227.072 109.993 227.113 110.261 227.196C110.534 227.275 110.779 227.398 110.997 227.566C111.216 227.735 111.402 227.951 111.556 228.216C111.71 228.478 111.828 228.791 111.91 229.156C111.993 229.518 112.034 229.933 112.034 230.402ZM110.482 231.96V230.193C110.482 229.91 110.465 229.663 110.433 229.452C110.405 229.24 110.36 229.061 110.299 228.915C110.238 228.764 110.163 228.642 110.073 228.549C109.984 228.456 109.882 228.388 109.767 228.345C109.653 228.302 109.526 228.281 109.386 228.281C109.21 228.281 109.055 228.315 108.919 228.383C108.786 228.451 108.673 228.56 108.58 228.71C108.487 228.857 108.416 229.054 108.365 229.301C108.319 229.545 108.296 229.842 108.296 230.193V231.96C108.296 232.243 108.31 232.492 108.339 232.707C108.371 232.921 108.417 233.106 108.478 233.26C108.543 233.41 108.618 233.534 108.704 233.63C108.793 233.723 108.895 233.792 109.01 233.834C109.128 233.877 109.257 233.899 109.397 233.899C109.569 233.899 109.721 233.865 109.853 233.797C109.989 233.725 110.104 233.614 110.197 233.464C110.294 233.31 110.365 233.109 110.412 232.862C110.458 232.615 110.482 232.314 110.482 231.96Z" fill="#999999"/>
<path d="M132.887 233.792V235H127.537V233.969L130.067 231.256C130.321 230.973 130.522 230.725 130.668 230.51C130.815 230.291 130.921 230.096 130.985 229.924C131.053 229.749 131.087 229.582 131.087 229.425C131.087 229.188 131.048 228.986 130.969 228.818C130.89 228.646 130.774 228.514 130.62 228.42C130.47 228.327 130.284 228.281 130.062 228.281C129.825 228.281 129.621 228.338 129.449 228.453C129.281 228.567 129.152 228.727 129.062 228.931C128.977 229.135 128.934 229.366 128.934 229.624H127.381C127.381 229.158 127.492 228.732 127.714 228.345C127.936 227.955 128.25 227.645 128.654 227.416C129.059 227.183 129.539 227.067 130.094 227.067C130.642 227.067 131.104 227.156 131.479 227.335C131.859 227.511 132.146 227.765 132.339 228.098C132.536 228.428 132.634 228.821 132.634 229.28C132.634 229.538 132.593 229.79 132.511 230.037C132.428 230.281 132.31 230.524 132.156 230.768C132.006 231.007 131.823 231.251 131.608 231.498C131.394 231.745 131.155 232.001 130.894 232.266L129.535 233.792H132.887ZM138.541 227.164V235H136.994V228.947L135.135 229.538V228.318L138.374 227.164H138.541Z" fill="#999999"/>
<path d="M167.887 233.792V235H162.537V233.969L165.067 231.256C165.321 230.973 165.522 230.725 165.668 230.51C165.815 230.291 165.921 230.096 165.985 229.924C166.053 229.749 166.087 229.582 166.087 229.425C166.087 229.188 166.048 228.986 165.969 228.818C165.89 228.646 165.774 228.514 165.62 228.42C165.47 228.327 165.284 228.281 165.062 228.281C164.825 228.281 164.621 228.338 164.449 228.453C164.281 228.567 164.152 228.727 164.062 228.931C163.977 229.135 163.934 229.366 163.934 229.624H162.381C162.381 229.158 162.492 228.732 162.714 228.345C162.936 227.955 163.25 227.645 163.654 227.416C164.059 227.183 164.539 227.067 165.094 227.067C165.642 227.067 166.104 227.156 166.479 227.335C166.859 227.511 167.146 227.765 167.339 228.098C167.536 228.428 167.634 228.821 167.634 229.28C167.634 229.538 167.593 229.79 167.511 230.037C167.428 230.281 167.31 230.524 167.156 230.768C167.006 231.007 166.823 231.251 166.608 231.498C166.394 231.745 166.155 232.001 165.894 232.266L164.535 233.792H167.887ZM175.12 233.792V235H169.77V233.969L172.3 231.256C172.554 230.973 172.755 230.725 172.902 230.51C173.048 230.291 173.154 230.096 173.218 229.924C173.286 229.749 173.32 229.582 173.32 229.425C173.32 229.188 173.281 228.986 173.202 228.818C173.124 228.646 173.007 228.514 172.853 228.42C172.703 228.327 172.517 228.281 172.295 228.281C172.058 228.281 171.854 228.338 171.682 228.453C171.514 228.567 171.385 228.727 171.296 228.931C171.21 229.135 171.167 229.366 171.167 229.624H169.614C169.614 229.158 169.725 228.732 169.947 228.345C170.169 227.955 170.483 227.645 170.887 227.416C171.292 227.183 171.772 227.067 172.327 227.067C172.875 227.067 173.337 227.156 173.713 227.335C174.092 227.511 174.379 227.765 174.572 228.098C174.769 228.428 174.867 228.821 174.867 229.28C174.867 229.538 174.826 229.79 174.744 230.037C174.661 230.281 174.543 230.524 174.389 230.768C174.239 231.007 174.056 231.251 173.841 231.498C173.627 231.745 173.389 232.001 173.127 232.266L171.768 233.792H175.12Z" fill="#999999"/>
<path d="M197.887 233.792V235H192.537V233.969L195.067 231.256C195.321 230.973 195.522 230.725 195.668 230.51C195.815 230.291 195.921 230.096 195.985 229.924C196.053 229.749 196.087 229.582 196.087 229.425C196.087 229.188 196.048 228.986 195.969 228.818C195.89 228.646 195.774 228.514 195.62 228.42C195.47 228.327 195.284 228.281 195.062 228.281C194.825 228.281 194.621 228.338 194.449 228.453C194.281 228.567 194.152 228.727 194.062 228.931C193.977 229.135 193.934 229.366 193.934 229.624H192.381C192.381 229.158 192.492 228.732 192.714 228.345C192.936 227.955 193.25 227.645 193.654 227.416C194.059 227.183 194.539 227.067 195.094 227.067C195.642 227.067 196.104 227.156 196.479 227.335C196.859 227.511 197.146 227.765 197.339 228.098C197.536 228.428 197.634 228.821 197.634 229.28C197.634 229.538 197.593 229.79 197.511 230.037C197.428 230.281 197.31 230.524 197.156 230.768C197.006 231.007 196.823 231.251 196.608 231.498C196.394 231.745 196.155 232.001 195.894 232.266L194.535 233.792H197.887ZM201.355 230.418H202.182C202.447 230.418 202.665 230.374 202.837 230.284C203.009 230.191 203.136 230.062 203.218 229.897C203.304 229.729 203.347 229.534 203.347 229.312C203.347 229.111 203.308 228.934 203.229 228.78C203.154 228.623 203.038 228.501 202.88 228.415C202.722 228.326 202.524 228.281 202.284 228.281C202.094 228.281 201.919 228.318 201.757 228.394C201.596 228.469 201.467 228.574 201.371 228.71C201.274 228.847 201.226 229.011 201.226 229.205H199.674C199.674 228.775 199.788 228.401 200.017 228.082C200.25 227.763 200.562 227.514 200.952 227.335C201.342 227.156 201.772 227.067 202.241 227.067C202.771 227.067 203.235 227.153 203.632 227.325C204.029 227.493 204.339 227.742 204.561 228.071C204.783 228.401 204.894 228.809 204.894 229.296C204.894 229.543 204.837 229.783 204.722 230.016C204.608 230.245 204.443 230.452 204.228 230.639C204.017 230.821 203.759 230.968 203.455 231.079C203.15 231.187 202.808 231.24 202.429 231.24H201.355V230.418ZM201.355 231.595V230.794H202.429C202.855 230.794 203.229 230.843 203.551 230.939C203.874 231.036 204.144 231.176 204.362 231.358C204.581 231.537 204.746 231.75 204.857 231.998C204.968 232.241 205.023 232.511 205.023 232.809C205.023 233.174 204.953 233.5 204.814 233.786C204.674 234.069 204.477 234.309 204.223 234.506C203.972 234.703 203.679 234.853 203.342 234.957C203.005 235.057 202.638 235.107 202.241 235.107C201.911 235.107 201.587 235.063 201.269 234.973C200.954 234.88 200.667 234.742 200.409 234.56C200.155 234.373 199.951 234.141 199.797 233.861C199.647 233.578 199.571 233.244 199.571 232.857H201.124C201.124 233.057 201.174 233.236 201.274 233.394C201.374 233.552 201.512 233.675 201.688 233.765C201.867 233.854 202.065 233.899 202.284 233.899C202.531 233.899 202.742 233.854 202.918 233.765C203.097 233.672 203.233 233.543 203.326 233.378C203.423 233.21 203.471 233.014 203.471 232.792C203.471 232.506 203.419 232.277 203.315 232.105C203.211 231.93 203.063 231.801 202.869 231.718C202.676 231.636 202.447 231.595 202.182 231.595H201.355Z" fill="#999999"/>
<path d="M225.887 233.792V235H220.537V233.969L223.067 231.256C223.321 230.973 223.522 230.725 223.668 230.51C223.815 230.291 223.921 230.096 223.985 229.924C224.053 229.749 224.087 229.582 224.087 229.425C224.087 229.188 224.048 228.986 223.969 228.818C223.89 228.646 223.774 228.514 223.62 228.42C223.47 228.327 223.284 228.281 223.062 228.281C222.825 228.281 222.621 228.338 222.449 228.453C222.281 228.567 222.152 228.727 222.062 228.931C221.977 229.135 221.934 229.366 221.934 229.624H220.381C220.381 229.158 220.492 228.732 220.714 228.345C220.936 227.955 221.25 227.645 221.654 227.416C222.059 227.183 222.539 227.067 223.094 227.067C223.642 227.067 224.104 227.156 224.479 227.335C224.859 227.511 225.146 227.765 225.339 228.098C225.536 228.428 225.634 228.821 225.634 229.28C225.634 229.538 225.593 229.79 225.511 230.037C225.428 230.281 225.31 230.524 225.156 230.768C225.006 231.007 224.823 231.251 224.608 231.498C224.394 231.745 224.155 232.001 223.894 232.266L222.535 233.792H225.887ZM233.249 232.078V233.292H227.614L227.539 232.352L230.799 227.18H232.029L230.697 229.409L229.075 232.078H233.249ZM232.362 227.18V235H230.816V227.18H232.362Z" fill="#999999"/>
<path d="M40.8867 272.792V274H35.5371V272.969L38.0669 270.256C38.3211 269.973 38.5216 269.725 38.6685 269.51C38.8153 269.291 38.9209 269.096 38.9854 268.924C39.0534 268.749 39.0874 268.582 39.0874 268.425C39.0874 268.188 39.048 267.986 38.9692 267.818C38.8905 267.646 38.7741 267.514 38.6201 267.42C38.4697 267.327 38.2835 267.281 38.0615 267.281C37.8252 267.281 37.6211 267.338 37.4492 267.453C37.2809 267.567 37.152 267.727 37.0625 267.931C36.9766 268.135 36.9336 268.366 36.9336 268.624H35.3813C35.3813 268.158 35.4924 267.732 35.7144 267.345C35.9364 266.955 36.2497 266.645 36.6543 266.416C37.0589 266.183 37.5387 266.067 38.0938 266.067C38.6416 266.067 39.1035 266.156 39.4795 266.335C39.859 266.511 40.1455 266.765 40.3389 267.098C40.5358 267.428 40.6343 267.821 40.6343 268.28C40.6343 268.538 40.5931 268.79 40.5107 269.037C40.4284 269.281 40.3102 269.524 40.1562 269.768C40.0059 270.007 39.8232 270.251 39.6084 270.498C39.3936 270.745 39.1554 271.001 38.894 271.266L37.5352 272.792H40.8867ZM44.2257 270.439L42.9904 270.144L43.4362 266.18H47.8298V267.431H44.7091L44.5158 269.166C44.6196 269.105 44.7772 269.041 44.9884 268.973C45.1997 268.901 45.436 268.865 45.6974 268.865C46.077 268.865 46.4136 268.924 46.7072 269.042C47.0008 269.161 47.2497 269.333 47.4538 269.558C47.6615 269.784 47.819 270.059 47.9264 270.385C48.0339 270.711 48.0876 271.08 48.0876 271.492C48.0876 271.839 48.0339 272.17 47.9264 272.485C47.819 272.797 47.6561 273.076 47.4377 273.323C47.2192 273.567 46.9453 273.758 46.6159 273.898C46.2865 274.038 45.8962 274.107 45.445 274.107C45.1084 274.107 44.7826 274.057 44.4674 273.957C44.1559 273.857 43.8748 273.708 43.6242 273.511C43.3771 273.314 43.1784 273.076 43.028 272.797C42.8812 272.514 42.8042 272.192 42.797 271.83H44.3332C44.3547 272.052 44.4119 272.244 44.505 272.405C44.6017 272.562 44.7288 272.684 44.8864 272.77C45.0439 272.856 45.2284 272.899 45.4396 272.899C45.6366 272.899 45.8049 272.861 45.9445 272.786C46.0841 272.711 46.1969 272.607 46.2829 272.475C46.3688 272.339 46.4315 272.181 46.4709 272.002C46.5138 271.819 46.5353 271.622 46.5353 271.411C46.5353 271.2 46.5103 271.008 46.4601 270.836C46.41 270.665 46.333 270.516 46.2292 270.391C46.1253 270.265 45.9928 270.169 45.8317 270.101C45.6742 270.033 45.4897 269.999 45.2785 269.999C44.992 269.999 44.77 270.043 44.6125 270.133C44.4585 270.222 44.3296 270.324 44.2257 270.439Z" fill="#999999"/>
<path d="M73.8867 272.792V274H68.5371V272.969L71.0669 270.256C71.3211 269.973 71.5216 269.725 71.6685 269.51C71.8153 269.291 71.9209 269.096 71.9854 268.924C72.0534 268.749 72.0874 268.582 72.0874 268.425C72.0874 268.188 72.048 267.986 71.9692 267.818C71.8905 267.646 71.7741 267.514 71.6201 267.42C71.4697 267.327 71.2835 267.281 71.0615 267.281C70.8252 267.281 70.6211 267.338 70.4492 267.453C70.2809 267.567 70.152 267.727 70.0625 267.931C69.9766 268.135 69.9336 268.366 69.9336 268.624H68.3813C68.3813 268.158 68.4924 267.732 68.7144 267.345C68.9364 266.955 69.2497 266.645 69.6543 266.416C70.0589 266.183 70.5387 266.067 71.0938 266.067C71.6416 266.067 72.1035 266.156 72.4795 266.335C72.859 266.511 73.1455 266.765 73.3389 267.098C73.5358 267.428 73.6343 267.821 73.6343 268.28C73.6343 268.538 73.5931 268.79 73.5107 269.037C73.4284 269.281 73.3102 269.524 73.1562 269.768C73.0059 270.007 72.8232 270.251 72.6084 270.498C72.3936 270.745 72.1554 271.001 71.894 271.266L70.5352 272.792H73.8867ZM79.7609 266.099H79.9865V267.334H79.8952C79.487 267.334 79.1235 267.395 78.8049 267.517C78.4862 267.639 78.2158 267.812 77.9938 268.038C77.7754 268.26 77.6071 268.529 77.4889 268.844C77.3743 269.159 77.3171 269.512 77.3171 269.902V271.202C77.3171 271.481 77.3439 271.728 77.3976 271.943C77.4549 272.154 77.5355 272.331 77.6393 272.475C77.7467 272.614 77.8721 272.72 78.0153 272.792C78.1585 272.86 78.3197 272.894 78.4987 272.894C78.667 272.894 78.8192 272.858 78.9552 272.786C79.0949 272.715 79.2131 272.614 79.3097 272.485C79.41 272.353 79.4852 272.199 79.5353 272.023C79.589 271.844 79.6159 271.649 79.6159 271.438C79.6159 271.227 79.589 271.032 79.5353 270.853C79.4852 270.674 79.41 270.52 79.3097 270.391C79.2095 270.258 79.0877 270.156 78.9445 270.084C78.8013 270.013 78.6401 269.977 78.4611 269.977C78.2176 269.977 78.0028 270.034 77.8166 270.149C77.634 270.26 77.4907 270.403 77.3869 270.579C77.283 270.754 77.2275 270.938 77.2204 271.132L76.7531 270.831C76.7638 270.555 76.8211 270.294 76.925 270.047C77.0324 269.8 77.1792 269.581 77.3654 269.392C77.5552 269.198 77.7826 269.048 78.0475 268.94C78.3125 268.829 78.6115 268.774 78.9445 268.774C79.3097 268.774 79.6302 268.844 79.9059 268.983C80.1852 269.123 80.418 269.315 80.6042 269.558C80.7904 269.802 80.93 270.083 81.0231 270.401C81.1162 270.72 81.1628 271.06 81.1628 271.422C81.1628 271.801 81.1001 272.154 80.9748 272.48C80.853 272.806 80.6758 273.09 80.443 273.334C80.2139 273.577 79.9382 273.767 79.6159 273.903C79.2936 274.039 78.932 274.107 78.5309 274.107C78.1156 274.107 77.7378 274.032 77.3976 273.882C77.061 273.728 76.771 273.513 76.5275 273.237C76.284 272.962 76.096 272.634 75.9635 272.254C75.8346 271.875 75.7702 271.459 75.7702 271.008V270.407C75.7702 269.777 75.8615 269.2 76.0441 268.677C76.2303 268.151 76.4971 267.696 76.8444 267.313C77.1917 266.926 77.6107 266.627 78.1012 266.416C78.5918 266.205 79.145 266.099 79.7609 266.099Z" fill="#999999"/>
<path d="M104.887 272.792V274H99.5371V272.969L102.067 270.256C102.321 269.973 102.522 269.725 102.668 269.51C102.815 269.291 102.921 269.096 102.985 268.924C103.053 268.749 103.087 268.582 103.087 268.425C103.087 268.188 103.048 267.986 102.969 267.818C102.89 267.646 102.774 267.514 102.62 267.42C102.47 267.327 102.284 267.281 102.062 267.281C101.825 267.281 101.621 267.338 101.449 267.453C101.281 267.567 101.152 267.727 101.062 267.931C100.977 268.135 100.934 268.366 100.934 268.624H99.3813C99.3813 268.158 99.4924 267.732 99.7144 267.345C99.9364 266.955 100.25 266.645 100.654 266.416C101.059 266.183 101.539 266.067 102.094 266.067C102.642 266.067 103.104 266.156 103.479 266.335C103.859 266.511 104.146 266.765 104.339 267.098C104.536 267.428 104.634 267.821 104.634 268.28C104.634 268.538 104.593 268.79 104.511 269.037C104.428 269.281 104.31 269.524 104.156 269.768C104.006 270.007 103.823 270.251 103.608 270.498C103.394 270.745 103.155 271.001 102.894 271.266L101.535 272.792H104.887ZM112.082 266.18V267.012L109.058 274H107.425L110.449 267.388H106.555V266.18H112.082Z" fill="#999999"/>
<path d="M132.887 272.792V274H127.537V272.969L130.067 270.256C130.321 269.973 130.522 269.725 130.668 269.51C130.815 269.291 130.921 269.096 130.985 268.924C131.053 268.749 131.087 268.582 131.087 268.425C131.087 268.188 131.048 267.986 130.969 267.818C130.89 267.646 130.774 267.514 130.62 267.42C130.47 267.327 130.284 267.281 130.062 267.281C129.825 267.281 129.621 267.338 129.449 267.453C129.281 267.567 129.152 267.727 129.062 267.931C128.977 268.135 128.934 268.366 128.934 268.624H127.381C127.381 268.158 127.492 267.732 127.714 267.345C127.936 266.955 128.25 266.645 128.654 266.416C129.059 266.183 129.539 266.067 130.094 266.067C130.642 266.067 131.104 266.156 131.479 266.335C131.859 266.511 132.146 266.765 132.339 267.098C132.536 267.428 132.634 267.821 132.634 268.28C132.634 268.538 132.593 268.79 132.511 269.037C132.428 269.281 132.31 269.524 132.156 269.768C132.006 270.007 131.823 270.251 131.608 270.498C131.394 270.745 131.155 271.001 130.894 271.266L129.535 272.792H132.887ZM140.039 271.857C140.039 272.347 139.925 272.761 139.695 273.098C139.466 273.431 139.151 273.683 138.75 273.855C138.353 274.023 137.902 274.107 137.397 274.107C136.892 274.107 136.439 274.023 136.038 273.855C135.637 273.683 135.32 273.431 135.087 273.098C134.854 272.761 134.738 272.347 134.738 271.857C134.738 271.528 134.804 271.23 134.937 270.965C135.069 270.697 135.254 270.468 135.49 270.278C135.73 270.084 136.011 269.938 136.333 269.837C136.655 269.734 137.006 269.682 137.386 269.682C137.894 269.682 138.349 269.771 138.75 269.95C139.151 270.129 139.466 270.382 139.695 270.708C139.925 271.033 140.039 271.417 140.039 271.857ZM138.482 271.755C138.482 271.515 138.435 271.309 138.342 271.137C138.252 270.962 138.125 270.827 137.961 270.734C137.796 270.641 137.604 270.595 137.386 270.595C137.167 270.595 136.976 270.641 136.811 270.734C136.646 270.827 136.518 270.962 136.424 271.137C136.335 271.309 136.29 271.515 136.29 271.755C136.29 271.991 136.335 272.195 136.424 272.367C136.518 272.539 136.646 272.672 136.811 272.765C136.979 272.854 137.175 272.899 137.397 272.899C137.619 272.899 137.81 272.854 137.971 272.765C138.136 272.672 138.261 272.539 138.347 272.367C138.437 272.195 138.482 271.991 138.482 271.755ZM139.873 268.253C139.873 268.65 139.767 269.003 139.556 269.311C139.345 269.615 139.051 269.854 138.675 270.025C138.303 270.197 137.876 270.283 137.397 270.283C136.913 270.283 136.484 270.197 136.108 270.025C135.732 269.854 135.438 269.615 135.227 269.311C135.015 269.003 134.91 268.65 134.91 268.253C134.91 267.78 135.015 267.383 135.227 267.061C135.442 266.735 135.735 266.488 136.108 266.319C136.484 266.151 136.91 266.067 137.386 266.067C137.869 266.067 138.297 266.151 138.67 266.319C139.046 266.488 139.339 266.735 139.55 267.061C139.765 267.383 139.873 267.78 139.873 268.253ZM138.326 268.323C138.326 268.111 138.288 267.929 138.213 267.775C138.138 267.617 138.03 267.496 137.891 267.41C137.755 267.324 137.586 267.281 137.386 267.281C137.193 267.281 137.026 267.322 136.886 267.404C136.75 267.487 136.645 267.607 136.569 267.764C136.498 267.918 136.462 268.104 136.462 268.323C136.462 268.534 136.498 268.72 136.569 268.881C136.645 269.039 136.752 269.162 136.892 269.252C137.031 269.341 137.2 269.386 137.397 269.386C137.594 269.386 137.76 269.341 137.896 269.252C138.036 269.162 138.141 269.039 138.213 268.881C138.288 268.72 138.326 268.534 138.326 268.323Z" fill="#999999"/>
<path d="M167.887 272.792V274H162.537V272.969L165.067 270.256C165.321 269.973 165.522 269.725 165.668 269.51C165.815 269.291 165.921 269.096 165.985 268.924C166.053 268.749 166.087 268.582 166.087 268.425C166.087 268.188 166.048 267.986 165.969 267.818C165.89 267.646 165.774 267.514 165.62 267.42C165.47 267.327 165.284 267.281 165.062 267.281C164.825 267.281 164.621 267.338 164.449 267.453C164.281 267.567 164.152 267.727 164.062 267.931C163.977 268.135 163.934 268.366 163.934 268.624H162.381C162.381 268.158 162.492 267.732 162.714 267.345C162.936 266.955 163.25 266.645 163.654 266.416C164.059 266.183 164.539 266.067 165.094 266.067C165.642 266.067 166.104 266.156 166.479 266.335C166.859 266.511 167.146 266.765 167.339 267.098C167.536 267.428 167.634 267.821 167.634 268.28C167.634 268.538 167.593 268.79 167.511 269.037C167.428 269.281 167.31 269.524 167.156 269.768C167.006 270.007 166.823 270.251 166.608 270.498C166.394 270.745 166.155 271.001 165.894 271.266L164.535 272.792H167.887ZM170.866 272.824H170.968C171.398 272.824 171.766 272.772 172.074 272.668C172.386 272.561 172.642 272.407 172.842 272.206C173.043 272.006 173.192 271.76 173.288 271.47C173.385 271.177 173.433 270.844 173.433 270.471V268.989C173.433 268.706 173.405 268.457 173.347 268.242C173.294 268.027 173.215 267.85 173.111 267.71C173.011 267.567 172.893 267.46 172.757 267.388C172.624 267.317 172.477 267.281 172.316 267.281C172.144 267.281 171.992 267.324 171.86 267.41C171.727 267.492 171.614 267.605 171.521 267.748C171.432 267.891 171.362 268.056 171.312 268.242C171.265 268.425 171.242 268.616 171.242 268.817C171.242 269.017 171.265 269.209 171.312 269.392C171.358 269.571 171.428 269.73 171.521 269.87C171.614 270.006 171.731 270.115 171.87 270.197C172.01 270.276 172.175 270.315 172.364 270.315C172.547 270.315 172.71 270.281 172.853 270.213C173 270.142 173.124 270.049 173.224 269.934C173.328 269.819 173.406 269.692 173.46 269.553C173.517 269.413 173.546 269.272 173.546 269.128L174.056 269.408C174.056 269.658 174.003 269.905 173.895 270.149C173.788 270.392 173.637 270.614 173.444 270.815C173.254 271.012 173.034 271.169 172.783 271.288C172.533 271.406 172.264 271.465 171.978 271.465C171.612 271.465 171.288 271.399 171.006 271.266C170.723 271.13 170.483 270.944 170.286 270.708C170.092 270.468 169.946 270.188 169.845 269.87C169.745 269.551 169.695 269.205 169.695 268.833C169.695 268.453 169.756 268.097 169.878 267.764C170.003 267.431 170.18 267.138 170.409 266.883C170.642 266.629 170.92 266.43 171.242 266.287C171.568 266.14 171.929 266.067 172.327 266.067C172.724 266.067 173.086 266.144 173.412 266.298C173.738 266.452 174.017 266.67 174.25 266.953C174.482 267.232 174.661 267.567 174.787 267.958C174.916 268.348 174.98 268.781 174.98 269.257V269.794C174.98 270.303 174.925 270.776 174.814 271.212C174.706 271.649 174.543 272.045 174.325 272.399C174.11 272.75 173.841 273.051 173.519 273.302C173.201 273.552 172.83 273.744 172.407 273.876C171.985 274.009 171.512 274.075 170.989 274.075H170.866V272.824Z" fill="#999999"/>
<path d="M194.122 269.418H194.949C195.214 269.418 195.432 269.374 195.604 269.284C195.776 269.191 195.903 269.062 195.985 268.897C196.071 268.729 196.114 268.534 196.114 268.312C196.114 268.111 196.075 267.934 195.996 267.78C195.921 267.623 195.805 267.501 195.647 267.415C195.489 267.326 195.291 267.281 195.051 267.281C194.861 267.281 194.686 267.318 194.524 267.394C194.363 267.469 194.234 267.574 194.138 267.71C194.041 267.847 193.993 268.011 193.993 268.205H192.44C192.44 267.775 192.555 267.401 192.784 267.082C193.017 266.763 193.328 266.514 193.719 266.335C194.109 266.156 194.539 266.067 195.008 266.067C195.538 266.067 196.001 266.153 196.399 266.325C196.796 266.493 197.106 266.742 197.328 267.071C197.55 267.401 197.661 267.809 197.661 268.296C197.661 268.543 197.604 268.783 197.489 269.016C197.375 269.245 197.21 269.452 196.995 269.639C196.784 269.821 196.526 269.968 196.222 270.079C195.917 270.187 195.575 270.24 195.196 270.24H194.122V269.418ZM194.122 270.595V269.794H195.196C195.622 269.794 195.996 269.843 196.318 269.939C196.641 270.036 196.911 270.176 197.129 270.358C197.348 270.537 197.513 270.75 197.624 270.998C197.735 271.241 197.79 271.511 197.79 271.809C197.79 272.174 197.72 272.5 197.581 272.786C197.441 273.069 197.244 273.309 196.99 273.506C196.739 273.703 196.445 273.853 196.109 273.957C195.772 274.057 195.405 274.107 195.008 274.107C194.678 274.107 194.354 274.063 194.036 273.973C193.721 273.88 193.434 273.742 193.176 273.56C192.922 273.373 192.718 273.141 192.564 272.861C192.414 272.578 192.338 272.244 192.338 271.857H193.891C193.891 272.057 193.941 272.236 194.041 272.394C194.141 272.552 194.279 272.675 194.455 272.765C194.634 272.854 194.832 272.899 195.051 272.899C195.298 272.899 195.509 272.854 195.685 272.765C195.864 272.672 196 272.543 196.093 272.378C196.189 272.21 196.238 272.014 196.238 271.792C196.238 271.506 196.186 271.277 196.082 271.105C195.978 270.93 195.83 270.801 195.636 270.718C195.443 270.636 195.214 270.595 194.949 270.595H194.122ZM205.034 269.402V270.756C205.034 271.343 204.971 271.85 204.846 272.276C204.721 272.698 204.54 273.046 204.303 273.318C204.071 273.586 203.793 273.785 203.471 273.914C203.149 274.043 202.791 274.107 202.397 274.107C202.082 274.107 201.788 274.068 201.516 273.989C201.244 273.907 200.998 273.78 200.78 273.608C200.565 273.436 200.379 273.219 200.221 272.958C200.067 272.693 199.949 272.378 199.867 272.013C199.785 271.647 199.743 271.229 199.743 270.756V269.402C199.743 268.815 199.806 268.312 199.931 267.893C200.06 267.471 200.241 267.125 200.474 266.856C200.71 266.588 200.989 266.391 201.312 266.266C201.634 266.137 201.992 266.072 202.386 266.072C202.701 266.072 202.993 266.113 203.261 266.196C203.534 266.275 203.779 266.398 203.997 266.566C204.216 266.735 204.402 266.951 204.556 267.216C204.71 267.478 204.828 267.791 204.91 268.156C204.993 268.518 205.034 268.933 205.034 269.402ZM203.482 270.96V269.193C203.482 268.91 203.465 268.663 203.433 268.452C203.405 268.24 203.36 268.061 203.299 267.915C203.238 267.764 203.163 267.642 203.073 267.549C202.984 267.456 202.882 267.388 202.767 267.345C202.653 267.302 202.526 267.281 202.386 267.281C202.21 267.281 202.055 267.315 201.919 267.383C201.786 267.451 201.673 267.56 201.58 267.71C201.487 267.857 201.416 268.054 201.365 268.301C201.319 268.545 201.296 268.842 201.296 269.193V270.96C201.296 271.243 201.31 271.492 201.339 271.707C201.371 271.921 201.417 272.106 201.478 272.26C201.543 272.41 201.618 272.534 201.704 272.63C201.793 272.723 201.895 272.792 202.01 272.834C202.128 272.877 202.257 272.899 202.397 272.899C202.569 272.899 202.721 272.865 202.853 272.797C202.989 272.725 203.104 272.614 203.197 272.464C203.294 272.31 203.365 272.109 203.412 271.862C203.458 271.615 203.482 271.314 203.482 270.96Z" fill="#999999"/>
<path d="M222.122 269.418H222.949C223.214 269.418 223.432 269.374 223.604 269.284C223.776 269.191 223.903 269.062 223.985 268.897C224.071 268.729 224.114 268.534 224.114 268.312C224.114 268.111 224.075 267.934 223.996 267.78C223.921 267.623 223.805 267.501 223.647 267.415C223.489 267.326 223.291 267.281 223.051 267.281C222.861 267.281 222.686 267.318 222.524 267.394C222.363 267.469 222.234 267.574 222.138 267.71C222.041 267.847 221.993 268.011 221.993 268.205H220.44C220.44 267.775 220.555 267.401 220.784 267.082C221.017 266.763 221.328 266.514 221.719 266.335C222.109 266.156 222.539 266.067 223.008 266.067C223.538 266.067 224.001 266.153 224.399 266.325C224.796 266.493 225.106 266.742 225.328 267.071C225.55 267.401 225.661 267.809 225.661 268.296C225.661 268.543 225.604 268.783 225.489 269.016C225.375 269.245 225.21 269.452 224.995 269.639C224.784 269.821 224.526 269.968 224.222 270.079C223.917 270.187 223.575 270.24 223.196 270.24H222.122V269.418ZM222.122 270.595V269.794H223.196C223.622 269.794 223.996 269.843 224.318 269.939C224.641 270.036 224.911 270.176 225.129 270.358C225.348 270.537 225.513 270.75 225.624 270.998C225.735 271.241 225.79 271.511 225.79 271.809C225.79 272.174 225.72 272.5 225.581 272.786C225.441 273.069 225.244 273.309 224.99 273.506C224.739 273.703 224.445 273.853 224.109 273.957C223.772 274.057 223.405 274.107 223.008 274.107C222.678 274.107 222.354 274.063 222.036 273.973C221.721 273.88 221.434 273.742 221.176 273.56C220.922 273.373 220.718 273.141 220.564 272.861C220.414 272.578 220.338 272.244 220.338 271.857H221.891C221.891 272.057 221.941 272.236 222.041 272.394C222.141 272.552 222.279 272.675 222.455 272.765C222.634 272.854 222.832 272.899 223.051 272.899C223.298 272.899 223.509 272.854 223.685 272.765C223.864 272.672 224 272.543 224.093 272.378C224.189 272.21 224.238 272.014 224.238 271.792C224.238 271.506 224.186 271.277 224.082 271.105C223.978 270.93 223.83 270.801 223.636 270.718C223.443 270.636 223.214 270.595 222.949 270.595H222.122ZM231.541 266.164V274H229.994V267.947L228.135 268.538V267.318L231.374 266.164H231.541Z" fill="#999999"/>
<path d="M33.4341 76.1797H34.7983L36.8071 81.9214L38.8159 76.1797H40.1802L37.355 84H36.2593L33.4341 76.1797ZM32.6982 76.1797H34.0571L34.3042 81.7764V84H32.6982V76.1797ZM39.5571 76.1797H40.9214V84H39.3101V81.7764L39.5571 76.1797ZM49.6745 79.9072V80.2778C49.6745 80.8722 49.5939 81.4058 49.4328 81.8784C49.2716 82.3511 49.0443 82.7539 48.7507 83.0869C48.457 83.4163 48.1061 83.6688 47.6979 83.8442C47.2933 84.0197 46.8439 84.1074 46.3498 84.1074C45.8592 84.1074 45.4098 84.0197 45.0016 83.8442C44.597 83.6688 44.2461 83.4163 43.9489 83.0869C43.6517 82.7539 43.4207 82.3511 43.256 81.8784C43.0949 81.4058 43.0143 80.8722 43.0143 80.2778V79.9072C43.0143 79.3092 43.0949 78.7757 43.256 78.3066C43.4172 77.834 43.6445 77.4312 43.9382 77.0981C44.2354 76.7651 44.5863 76.5109 44.9909 76.3354C45.3991 76.16 45.8485 76.0723 46.339 76.0723C46.8332 76.0723 47.2826 76.16 47.6872 76.3354C48.0954 76.5109 48.4463 76.7651 48.7399 77.0981C49.0371 77.4312 49.2663 77.834 49.4274 78.3066C49.5921 78.7757 49.6745 79.3092 49.6745 79.9072ZM48.047 80.2778V79.8965C48.047 79.4811 48.0094 79.1159 47.9342 78.8008C47.859 78.4857 47.748 78.2207 47.6012 78.0059C47.4544 77.791 47.2754 77.6299 47.0641 77.5225C46.8529 77.4115 46.6112 77.356 46.339 77.356C46.0669 77.356 45.8252 77.4115 45.6139 77.5225C45.4063 77.6299 45.229 77.791 45.0822 78.0059C44.939 78.2207 44.8298 78.4857 44.7546 78.8008C44.6794 79.1159 44.6418 79.4811 44.6418 79.8965V80.2778C44.6418 80.6896 44.6794 81.0549 44.7546 81.3735C44.8298 81.6886 44.9408 81.9554 45.0876 82.1738C45.2344 82.3887 45.4134 82.5516 45.6247 82.6626C45.8359 82.7736 46.0776 82.8291 46.3498 82.8291C46.6219 82.8291 46.8636 82.7736 47.0749 82.6626C47.2861 82.5516 47.4634 82.3887 47.6066 82.1738C47.7498 81.9554 47.859 81.6886 47.9342 81.3735C48.0094 81.0549 48.047 80.6896 48.047 80.2778Z" fill="#808080"/>
<path d="M71.1948 76.1797V84H69.5889V76.1797H71.1948ZM73.6011 76.1797V77.4419H67.2202V76.1797H73.6011ZM79.7546 76.1797H81.3605V81.3467C81.3605 81.9482 81.2316 82.4549 80.9738 82.8667C80.7196 83.2785 80.3669 83.5882 79.9157 83.7959C79.4681 84.0036 78.9525 84.1074 78.3688 84.1074C77.7852 84.1074 77.266 84.0036 76.8112 83.7959C76.36 83.5882 76.0055 83.2785 75.7477 82.8667C75.4935 82.4549 75.3664 81.9482 75.3664 81.3467V76.1797H76.9777V81.3467C76.9777 81.6976 77.0332 81.984 77.1442 82.2061C77.2552 82.4281 77.4146 82.591 77.6222 82.6948C77.8335 82.7987 78.0824 82.8506 78.3688 82.8506C78.6624 82.8506 78.9113 82.7987 79.1154 82.6948C79.3231 82.591 79.4806 82.4281 79.5881 82.2061C79.6991 81.984 79.7546 81.6976 79.7546 81.3467V76.1797Z" fill="#808080"/>
<path d="M99.5835 82.7593L101.141 76.1797H102.011L102.21 77.2754L100.55 84H99.6157L99.5835 82.7593ZM98.7832 76.1797L100.072 82.7593L99.9648 84H98.9229L97.188 76.1797H98.7832ZM103.58 82.7324L104.853 76.1797H106.448L104.718 84H103.676L103.58 82.7324ZM102.5 76.1797L104.068 82.7861L104.025 84H103.091L101.42 77.27L101.635 76.1797H102.5ZM113.487 82.7432V84H109.325V82.7432H113.487ZM109.851 76.1797V84H108.24V76.1797H109.851ZM112.945 79.3647V80.5894H109.325V79.3647H112.945ZM113.482 76.1797V77.4419H109.325V76.1797H113.482Z" fill="#808080"/>
<path d="M130.195 76.1797V84H128.589V76.1797H130.195ZM132.601 76.1797V77.4419H126.22V76.1797H132.601ZM139.652 79.3647V80.6216H135.569V79.3647H139.652ZM136.048 76.1797V84H134.436V76.1797H136.048ZM140.801 76.1797V84H139.195V76.1797H140.801Z" fill="#808080"/>
<path d="M163.31 76.1797V84H161.698V76.1797H163.31ZM166.425 79.5205V80.7773H162.869V79.5205H166.425ZM166.801 76.1797V77.4419H162.869V76.1797H166.801ZM168.652 76.1797H171.569C172.167 76.1797 172.68 76.2692 173.11 76.4482C173.543 76.6273 173.876 76.8923 174.109 77.2432C174.342 77.5941 174.458 78.0256 174.458 78.5376C174.458 78.9565 174.387 79.3164 174.243 79.6172C174.104 79.9144 173.905 80.1632 173.647 80.3638C173.393 80.5607 173.094 80.7183 172.75 80.8364L172.24 81.105H169.705L169.694 79.8481H171.579C171.862 79.8481 172.097 79.798 172.283 79.6978C172.469 79.5975 172.609 79.4578 172.702 79.2788C172.799 79.0998 172.847 78.8921 172.847 78.6558C172.847 78.4051 172.8 78.1885 172.707 78.0059C172.614 77.8232 172.473 77.6836 172.283 77.5869C172.093 77.4902 171.855 77.4419 171.569 77.4419H170.263V84H168.652V76.1797ZM173.024 84L171.241 80.5142L172.944 80.5034L174.748 83.9248V84H173.024Z" fill="#808080"/>
<path d="M195.77 81.9536C195.77 81.814 195.748 81.6886 195.705 81.5776C195.666 81.4631 195.59 81.3592 195.479 81.2661C195.368 81.1694 195.213 81.0745 195.012 80.9814C194.812 80.8883 194.552 80.7917 194.233 80.6914C193.879 80.5768 193.542 80.4479 193.224 80.3047C192.909 80.1615 192.629 79.995 192.386 79.8052C192.146 79.6118 191.956 79.388 191.816 79.1338C191.68 78.8796 191.612 78.5841 191.612 78.2476C191.612 77.9217 191.684 77.6263 191.827 77.3613C191.97 77.0928 192.171 76.8636 192.429 76.6738C192.687 76.4805 192.991 76.3319 193.342 76.228C193.696 76.1242 194.085 76.0723 194.507 76.0723C195.084 76.0723 195.587 76.1761 196.017 76.3838C196.446 76.5915 196.779 76.8761 197.016 77.2378C197.256 77.5994 197.375 78.013 197.375 78.4785H195.775C195.775 78.2493 195.727 78.0488 195.63 77.877C195.537 77.7015 195.394 77.5636 195.2 77.4634C195.01 77.3631 194.771 77.313 194.48 77.313C194.201 77.313 193.968 77.356 193.782 77.4419C193.596 77.5243 193.456 77.637 193.363 77.7803C193.27 77.9199 193.224 78.0775 193.224 78.2529C193.224 78.3854 193.256 78.5054 193.32 78.6128C193.388 78.7202 193.489 78.8205 193.621 78.9136C193.754 79.0067 193.917 79.0944 194.11 79.1768C194.303 79.2591 194.527 79.3397 194.781 79.4185C195.207 79.5474 195.582 79.6924 195.904 79.8535C196.23 80.0146 196.502 80.1955 196.72 80.396C196.939 80.5965 197.103 80.8239 197.214 81.0781C197.325 81.3324 197.381 81.6206 197.381 81.9429C197.381 82.283 197.315 82.5874 197.182 82.856C197.05 83.1245 196.858 83.3519 196.607 83.5381C196.357 83.7243 196.058 83.8657 195.71 83.9624C195.363 84.0591 194.975 84.1074 194.545 84.1074C194.158 84.1074 193.777 84.0573 193.401 83.957C193.025 83.8532 192.683 83.6974 192.375 83.4897C192.071 83.2821 191.827 83.0171 191.645 82.6948C191.462 82.3726 191.371 81.9912 191.371 81.5508H192.987C192.987 81.7943 193.025 82.0002 193.1 82.1685C193.175 82.3368 193.281 82.4728 193.417 82.5767C193.557 82.6805 193.721 82.7557 193.911 82.8022C194.104 82.8488 194.316 82.8721 194.545 82.8721C194.824 82.8721 195.053 82.8327 195.232 82.7539C195.415 82.6751 195.549 82.5659 195.635 82.4263C195.725 82.2866 195.77 82.1291 195.77 81.9536ZM202.573 77.5171L200.446 84H198.733L201.638 76.1797H202.729L202.573 77.5171ZM204.34 84L202.208 77.5171L202.036 76.1797H203.137L206.059 84H204.34ZM204.243 81.0889V82.3511H200.113V81.0889H204.243Z" fill="#808080"/>
<path d="M223.77 81.9536C223.77 81.814 223.748 81.6886 223.705 81.5776C223.666 81.4631 223.59 81.3592 223.479 81.2661C223.368 81.1694 223.213 81.0745 223.012 80.9814C222.812 80.8883 222.552 80.7917 222.233 80.6914C221.879 80.5768 221.542 80.4479 221.224 80.3047C220.909 80.1615 220.629 79.995 220.386 79.8052C220.146 79.6118 219.956 79.388 219.816 79.1338C219.68 78.8796 219.612 78.5841 219.612 78.2476C219.612 77.9217 219.684 77.6263 219.827 77.3613C219.97 77.0928 220.171 76.8636 220.429 76.6738C220.687 76.4805 220.991 76.3319 221.342 76.228C221.696 76.1242 222.085 76.0723 222.507 76.0723C223.084 76.0723 223.587 76.1761 224.017 76.3838C224.446 76.5915 224.779 76.8761 225.016 77.2378C225.256 77.5994 225.375 78.013 225.375 78.4785H223.775C223.775 78.2493 223.727 78.0488 223.63 77.877C223.537 77.7015 223.394 77.5636 223.2 77.4634C223.01 77.3631 222.771 77.313 222.48 77.313C222.201 77.313 221.968 77.356 221.782 77.4419C221.596 77.5243 221.456 77.637 221.363 77.7803C221.27 77.9199 221.224 78.0775 221.224 78.2529C221.224 78.3854 221.256 78.5054 221.32 78.6128C221.388 78.7202 221.489 78.8205 221.621 78.9136C221.754 79.0067 221.917 79.0944 222.11 79.1768C222.303 79.2591 222.527 79.3397 222.781 79.4185C223.207 79.5474 223.582 79.6924 223.904 79.8535C224.23 80.0146 224.502 80.1955 224.72 80.396C224.939 80.5965 225.103 80.8239 225.214 81.0781C225.325 81.3324 225.381 81.6206 225.381 81.9429C225.381 82.283 225.315 82.5874 225.182 82.856C225.05 83.1245 224.858 83.3519 224.607 83.5381C224.357 83.7243 224.058 83.8657 223.71 83.9624C223.363 84.0591 222.975 84.1074 222.545 84.1074C222.158 84.1074 221.777 84.0573 221.401 83.957C221.025 83.8532 220.683 83.6974 220.375 83.4897C220.071 83.2821 219.827 83.0171 219.645 82.6948C219.462 82.3726 219.371 81.9912 219.371 81.5508H220.987C220.987 81.7943 221.025 82.0002 221.1 82.1685C221.175 82.3368 221.281 82.4728 221.417 82.5767C221.557 82.6805 221.721 82.7557 221.911 82.8022C222.104 82.8488 222.316 82.8721 222.545 82.8721C222.824 82.8721 223.053 82.8327 223.232 82.7539C223.415 82.6751 223.549 82.5659 223.635 82.4263C223.725 82.2866 223.77 82.1291 223.77 81.9536ZM231.712 76.1797H233.318V81.3467C233.318 81.9482 233.189 82.4549 232.931 82.8667C232.677 83.2785 232.324 83.5882 231.873 83.7959C231.425 84.0036 230.91 84.1074 230.326 84.1074C229.742 84.1074 229.223 84.0036 228.768 83.7959C228.317 83.5882 227.963 83.2785 227.705 82.8667C227.451 82.4549 227.323 81.9482 227.323 81.3467V76.1797H228.935V81.3467C228.935 81.6976 228.99 81.984 229.101 82.2061C229.212 82.4281 229.372 82.591 229.579 82.6948C229.791 82.7987 230.039 82.8506 230.326 82.8506C230.619 82.8506 230.868 82.7987 231.072 82.6948C231.28 82.591 231.438 82.4281 231.545 82.2061C231.656 81.984 231.712 81.6976 231.712 81.3467V76.1797Z" fill="#808080"/>
<path d="M97.5723 24.0469H98.8506L102.111 32.1611L105.365 24.0469H106.65L102.604 34H101.605L97.5723 24.0469ZM97.1553 24.0469H98.2832L98.4678 30.1172V34H97.1553V24.0469ZM105.933 24.0469H107.061V34H105.748V30.1172L105.933 24.0469ZM113.548 32.7354V28.9277C113.548 28.6361 113.489 28.3831 113.37 28.1689C113.256 27.9502 113.083 27.7816 112.851 27.6631C112.618 27.5446 112.331 27.4854 111.989 27.4854C111.67 27.4854 111.39 27.54 111.148 27.6494C110.911 27.7588 110.725 27.9023 110.588 28.0801C110.456 28.2578 110.39 28.4492 110.39 28.6543H109.125C109.125 28.39 109.193 28.1279 109.33 27.8682C109.467 27.6084 109.663 27.3737 109.918 27.1641C110.178 26.9499 110.488 26.7812 110.848 26.6582C111.212 26.5306 111.618 26.4668 112.064 26.4668C112.602 26.4668 113.076 26.5579 113.486 26.7402C113.901 26.9225 114.225 27.1982 114.457 27.5674C114.694 27.932 114.812 28.39 114.812 28.9414V32.3867C114.812 32.6328 114.833 32.8949 114.874 33.1729C114.92 33.4508 114.986 33.6901 115.072 33.8906V34H113.753C113.689 33.8542 113.639 33.6605 113.603 33.4189C113.566 33.1729 113.548 32.945 113.548 32.7354ZM113.767 29.5156L113.78 30.4043H112.502C112.142 30.4043 111.821 30.4339 111.538 30.4932C111.256 30.5479 111.019 30.6322 110.827 30.7461C110.636 30.86 110.49 31.0036 110.39 31.1768C110.289 31.3454 110.239 31.5436 110.239 31.7715C110.239 32.0039 110.292 32.2158 110.396 32.4072C110.501 32.5986 110.659 32.7513 110.868 32.8652C111.082 32.9746 111.344 33.0293 111.654 33.0293C112.042 33.0293 112.383 32.9473 112.68 32.7832C112.976 32.6191 113.211 32.4186 113.384 32.1816C113.562 31.9447 113.657 31.7145 113.671 31.4912L114.211 32.0996C114.179 32.291 114.092 32.5029 113.951 32.7354C113.81 32.9678 113.621 33.1911 113.384 33.4053C113.151 33.6149 112.873 33.7904 112.55 33.9316C112.231 34.0684 111.871 34.1367 111.47 34.1367C110.968 34.1367 110.529 34.0387 110.15 33.8428C109.777 33.6468 109.485 33.3848 109.275 33.0566C109.07 32.724 108.968 32.3525 108.968 31.9424C108.968 31.5459 109.045 31.1973 109.2 30.8965C109.355 30.5911 109.578 30.3382 109.87 30.1377C110.162 29.9326 110.513 29.7777 110.923 29.6729C111.333 29.568 111.791 29.5156 112.297 29.5156H113.767ZM118.066 27.7656V34H116.802V26.6035H118.032L118.066 27.7656ZM120.377 26.5625L120.37 27.7383C120.265 27.7155 120.165 27.7018 120.069 27.6973C119.978 27.6882 119.873 27.6836 119.755 27.6836C119.463 27.6836 119.206 27.7292 118.982 27.8203C118.759 27.9115 118.57 28.0391 118.415 28.2031C118.26 28.3672 118.137 28.5632 118.046 28.791C117.959 29.0143 117.902 29.2604 117.875 29.5293L117.52 29.7344C117.52 29.2878 117.563 28.8685 117.649 28.4766C117.741 28.0846 117.88 27.7383 118.066 27.4375C118.253 27.1322 118.49 26.8952 118.777 26.7266C119.069 26.5534 119.415 26.4668 119.816 26.4668C119.908 26.4668 120.012 26.4782 120.131 26.501C120.249 26.5192 120.331 26.5397 120.377 26.5625ZM124.369 33.0977C124.67 33.0977 124.948 33.0361 125.203 32.9131C125.458 32.79 125.668 32.6214 125.832 32.4072C125.996 32.1885 126.09 31.9401 126.112 31.6621H127.315C127.293 32.0996 127.145 32.5075 126.871 32.8857C126.602 33.2594 126.249 33.5625 125.812 33.7949C125.374 34.0228 124.893 34.1367 124.369 34.1367C123.813 34.1367 123.328 34.0387 122.913 33.8428C122.503 33.6468 122.161 33.3779 121.888 33.0361C121.619 32.6943 121.416 32.3024 121.279 31.8604C121.147 31.4137 121.081 30.9421 121.081 30.4453V30.1582C121.081 29.6615 121.147 29.1921 121.279 28.75C121.416 28.3034 121.619 27.9092 121.888 27.5674C122.161 27.2256 122.503 26.9567 122.913 26.7607C123.328 26.5648 123.813 26.4668 124.369 26.4668C124.948 26.4668 125.454 26.5853 125.887 26.8223C126.32 27.0547 126.659 27.3737 126.905 27.7793C127.156 28.1803 127.293 28.6361 127.315 29.1465H126.112C126.09 28.8411 126.003 28.5654 125.853 28.3193C125.707 28.0732 125.506 27.8773 125.251 27.7314C125 27.5811 124.706 27.5059 124.369 27.5059C123.982 27.5059 123.656 27.5833 123.392 27.7383C123.132 27.8887 122.924 28.0938 122.77 28.3535C122.619 28.6087 122.51 28.8936 122.441 29.208C122.378 29.5179 122.346 29.8346 122.346 30.1582V30.4453C122.346 30.7689 122.378 31.0879 122.441 31.4023C122.505 31.7168 122.612 32.0016 122.763 32.2568C122.918 32.512 123.125 32.7171 123.385 32.8721C123.649 33.0225 123.977 33.0977 124.369 33.0977ZM130.002 23.5V34H128.737V23.5H130.002ZM129.701 30.0215L129.175 30.001C129.179 29.4951 129.255 29.028 129.4 28.5996C129.546 28.1667 129.751 27.7907 130.016 27.4717C130.28 27.1527 130.594 26.9066 130.959 26.7334C131.328 26.5557 131.736 26.4668 132.183 26.4668C132.547 26.4668 132.875 26.5169 133.167 26.6172C133.459 26.7129 133.707 26.8678 133.912 27.082C134.122 27.2962 134.281 27.5742 134.391 27.916C134.5 28.2533 134.555 28.6657 134.555 29.1533V34H133.283V29.1396C133.283 28.7523 133.226 28.4424 133.112 28.21C132.998 27.973 132.832 27.8021 132.613 27.6973C132.395 27.5879 132.126 27.5332 131.807 27.5332C131.492 27.5332 131.205 27.5993 130.945 27.7314C130.69 27.8636 130.469 28.0459 130.282 28.2783C130.1 28.5107 129.956 28.7773 129.852 29.0781C129.751 29.3743 129.701 29.6888 129.701 30.0215ZM146.306 32.9609V34H139.791V33.0908L143.052 29.4609C143.453 29.0143 143.763 28.6361 143.981 28.3262C144.205 28.0117 144.36 27.7314 144.446 27.4854C144.537 27.2347 144.583 26.9795 144.583 26.7197C144.583 26.3916 144.515 26.0954 144.378 25.8311C144.246 25.5622 144.05 25.348 143.79 25.1885C143.53 25.029 143.216 24.9492 142.847 24.9492C142.405 24.9492 142.035 25.0358 141.739 25.209C141.448 25.3776 141.229 25.6146 141.083 25.9199C140.937 26.2253 140.864 26.5762 140.864 26.9727H139.6C139.6 26.4121 139.723 25.8994 139.969 25.4346C140.215 24.9697 140.579 24.6006 141.062 24.3271C141.546 24.0492 142.14 23.9102 142.847 23.9102C143.476 23.9102 144.013 24.0218 144.46 24.2451C144.907 24.4639 145.248 24.7738 145.485 25.1748C145.727 25.5713 145.848 26.0361 145.848 26.5693C145.848 26.861 145.798 27.1572 145.697 27.458C145.602 27.7542 145.467 28.0505 145.294 28.3467C145.125 28.6429 144.927 28.9346 144.699 29.2217C144.476 29.5088 144.237 29.7913 143.981 30.0693L141.315 32.9609H146.306ZM153.907 28.2305V29.748C153.907 30.5638 153.834 31.252 153.688 31.8125C153.543 32.373 153.333 32.8242 153.06 33.166C152.786 33.5078 152.456 33.7562 152.068 33.9111C151.686 34.0615 151.253 34.1367 150.77 34.1367C150.387 34.1367 150.034 34.0889 149.71 33.9932C149.386 33.8975 149.095 33.7448 148.835 33.5352C148.58 33.321 148.361 33.043 148.179 32.7012C147.996 32.3594 147.857 31.9447 147.762 31.457C147.666 30.9694 147.618 30.3997 147.618 29.748V28.2305C147.618 27.4147 147.691 26.7311 147.837 26.1797C147.987 25.6283 148.199 25.1862 148.473 24.8535C148.746 24.5163 149.074 24.2747 149.457 24.1289C149.844 23.9831 150.277 23.9102 150.756 23.9102C151.143 23.9102 151.499 23.958 151.822 24.0537C152.15 24.1449 152.442 24.293 152.697 24.498C152.952 24.6986 153.169 24.9674 153.347 25.3047C153.529 25.6374 153.668 26.0452 153.764 26.5283C153.859 27.0114 153.907 27.5788 153.907 28.2305ZM152.636 29.9531V28.0186C152.636 27.5719 152.608 27.18 152.554 26.8428C152.504 26.501 152.428 26.2093 152.328 25.9678C152.228 25.7262 152.1 25.5303 151.945 25.3799C151.795 25.2295 151.619 25.1201 151.419 25.0518C151.223 24.9788 151.002 24.9424 150.756 24.9424C150.455 24.9424 150.188 24.9993 149.956 25.1133C149.724 25.2227 149.528 25.3981 149.368 25.6396C149.213 25.8812 149.095 26.1979 149.013 26.5898C148.931 26.9818 148.89 27.458 148.89 28.0186V29.9531C148.89 30.3997 148.915 30.7939 148.965 31.1357C149.02 31.4775 149.099 31.7738 149.204 32.0244C149.309 32.2705 149.437 32.4733 149.587 32.6328C149.737 32.7923 149.91 32.9108 150.106 32.9883C150.307 33.0612 150.528 33.0977 150.77 33.0977C151.079 33.0977 151.351 33.0384 151.583 32.9199C151.815 32.8014 152.009 32.6169 152.164 32.3662C152.324 32.111 152.442 31.7852 152.52 31.3887C152.597 30.9876 152.636 30.5091 152.636 29.9531ZM159.69 23.9922V34H158.426V25.5713L155.876 26.501V25.3594L159.492 23.9922H159.69ZM169.842 24.0469V24.7578L165.72 34H164.387L168.502 25.0859H163.115V24.0469H169.842Z" fill="#989898"/>
<path fill-rule="evenodd" clip-rule="evenodd" d="M41.1629 29.6598C41.0498 29.3222 41.1201 28.939 41.3952 28.6716L45.1673 24.9989C45.5573 24.6184 46.1907 24.6184 46.5815 24.9989C46.9715 25.3795 46.9715 25.9958 46.5815 26.3763L43.0974 29.7687L46.6947 33.2717C47.1018 33.6668 47.1018 34.3079 46.6947 34.703C46.2893 35.099 45.631 35.099 45.2247 34.703L41.3035 30.8855C40.9598 30.5504 40.9247 30.049 41.1629 29.6598Z" fill="#4DA1FF"/>
<path fill-rule="evenodd" clip-rule="evenodd" d="M224.837 29.6598C224.95 29.3222 224.88 28.939 224.605 28.6716L220.833 24.9989C220.443 24.6184 219.809 24.6184 219.418 24.9989C219.028 25.3795 219.028 25.9958 219.418 26.3763L222.903 29.7687L219.305 33.2717C218.898 33.6668 218.898 34.3079 219.305 34.703C219.711 35.099 220.369 35.099 220.775 34.703L224.696 30.8855C225.04 30.5504 225.075 30.049 224.837 29.6598Z" fill="#4DA1FF"/>
</svg>
